<svg width="26" height="27" viewBox="0 0 26 27" fill="none" xmlns="http://www.w3.org/2000/svg">
<path d="M13.0005 5.02721C14.8632 4.99855 16.6646 5.69251 18.0267 6.96346L21.6955 3.37596C19.3417 1.17039 16.2259 -0.0390273 13.0005 0.000960935C10.5905 0.000404079 8.22797 0.670256 6.17696 1.93561C4.12596 3.20096 2.46738 5.01192 1.38672 7.16596L5.59047 10.4297C6.10448 8.86678 7.09614 7.50463 8.42559 6.53535C9.75505 5.56607 11.3552 5.03856 13.0005 5.02721Z" fill="#E43E2B"/>
<path d="M25.48 13.2903C25.4953 12.3967 25.403 11.5044 25.205 10.6328H13V15.4578H20.165C20.0291 16.3037 19.7235 17.1135 19.2666 17.8382C18.8097 18.563 18.2109 19.1879 17.5062 19.6753L21.6087 22.8528C22.8873 21.6184 23.8928 20.1296 24.5602 18.4825C25.2277 16.8353 25.5423 15.0666 25.4837 13.2903H25.48Z" fill="#3B7DED"/>
<path d="M5.60543 15.5713C5.3212 14.7437 5.17467 13.8751 5.17168 13C5.17686 12.1264 5.31814 11.2589 5.59043 10.4288L1.38668 7.16504C0.47492 8.97521 0 10.9738 0 13.0007C0 15.0275 0.47492 17.0261 1.38668 18.8363L5.60543 15.5713Z" fill="#F0B501"/>
<path d="M13.0006 26.001C16.1672 26.0906 19.2478 24.9638 21.6094 22.8523L17.5069 19.6748C16.1767 20.5665 14.6014 21.021 13.0006 20.9748C11.3568 20.965 9.75774 20.4379 8.43037 19.4681C7.103 18.4984 6.11467 17.1353 5.60561 15.5723L1.40186 18.8373C2.4796 20.9903 4.13547 22.8009 6.184 24.0661C8.23253 25.3314 10.5928 26.0013 13.0006 26.001Z" fill="#2BA24C"/>
</svg>
