<svg width="24" height="24" viewBox="0 0 24 24" fill="none" xmlns="http://www.w3.org/2000/svg">
<path fill-rule="evenodd" clip-rule="evenodd" d="M11.0957 17.961C11.3881 17.9868 11.6895 18.0003 12.0002 18.0003C16.9093 18.0003 21.0002 12.0003 21.0002 12.0003C21.0002 12.0003 20.3306 11.0182 19.2081 9.84863L11.0957 17.961Z" fill="#979797"/>
<path fill-rule="evenodd" clip-rule="evenodd" d="M14.5051 6.49485C13.7076 6.18695 12.8665 6 12 6C5.45455 6 3 12 3 12C3 12 3.75006 13.8335 5.52661 15.4734L9 12C9 10.3431 10.3431 9 12 9L14.5051 6.49485Z" fill="#979797"/>
<rect opacity="0.3" x="5.1001" y="18.4346" width="19" height="2" transform="rotate(-45 5.1001 18.4346)" fill="#979797"/>
</svg>
