<svg width="64" height="57" viewBox="0 0 64 57" fill="none" xmlns="http://www.w3.org/2000/svg">
<path id="Vector" d="M60.2232 0H38.3733C38.0141 0 37.6652 0.0308831 37.3162 0.0823551H36.8236C33.6729 0.0823551 31.1174 2.64566 31.1174 5.80603V32.7773L9.23669 1.75005C8.49775 0.700018 7.29699 0.0823551 6.01411 0.0823551H4.20783C1.88839 0.0823551 0 1.97652 0 4.30305V50.4219C0 54.0558 2.93521 56.9897 6.54779 56.9897H58.2425C58.4067 56.9897 58.5606 56.9897 58.7146 56.9691H58.8685C61.7114 56.9691 64.0103 54.6632 64.0103 51.8116V36.648C62.8916 31.3052 56.662 31.717 56.662 31.717C54.8146 31.717 53.3162 30.214 53.3162 28.361C53.3162 26.6625 54.5786 25.2521 56.2207 25.0462C56.3541 25.0462 56.4978 25.0256 56.6517 25.0154C63.5587 24.3462 64 20.0843 64 20.0843V3.78833C64 1.69857 62.3066 0 60.2232 0ZM56.6517 18.7667C51.4894 18.7667 47.2919 22.9668 47.2919 28.1551C47.2919 33.3435 51.4792 37.5436 56.6517 37.5436V49.6086H9.59589C8.6517 49.6086 7.89224 48.8366 7.9025 47.8895L7.93329 46.335V13.6298L29.4035 44.0703C30.399 45.4909 32.0308 46.3247 33.755 46.3247C36.7004 46.3247 39.0917 43.9261 39.0917 40.9716V7.37078H56.662V18.7667H56.6517Z" fill="url(#paint0_linear_8_2944)"/>
<defs>
<linearGradient id="paint0_linear_8_2944" x1="0" y1="28.4949" x2="64" y2="28.4949" gradientUnits="userSpaceOnUse">
<stop stop-color="#8200BC"/>
<stop offset="1" stop-color="#D22869"/>
</linearGradient>
</defs>
</svg>
