<svg width="157" height="23" viewBox="0 0 157 23" fill="none" xmlns="http://www.w3.org/2000/svg">
<path d="M0.176172 0.699999V22H3.74617V6.7L14.3662 22H17.6062V0.699999H14.0362V15.94L3.41617 0.699999H0.176172ZM20.8673 14.14C20.8673 18.88 24.1373 22.45 28.8473 22.45C31.7273 22.45 34.5173 21.13 35.7173 18.43L32.6873 17.26C31.7573 18.73 30.4973 19.45 28.8473 19.45C26.2073 19.45 24.6773 17.41 24.4373 14.98H36.0473V13.96C36.0473 9.37 33.2273 5.86 28.5773 5.86C23.9273 5.86 20.8673 9.76 20.8673 14.14ZM28.5773 8.65C30.8873 8.65 32.1173 10.45 32.4473 12.52H24.5273C24.9473 10.42 26.3273 8.65 28.5773 8.65ZM37.5217 6.31V9.1H40.2817V17.17C40.2817 20.41 42.0517 22.45 45.3517 22.45C46.0417 22.45 46.7017 22.36 47.3317 22.18C47.9317 21.97 48.4717 21.73 48.9217 21.4L48.1417 18.79C47.7817 19 47.3917 19.15 46.9717 19.24C46.5517 19.36 46.1617 19.42 45.8017 19.42C44.2717 19.42 43.7317 18.16 43.7317 16.81V9.1H48.2917V6.31H43.7317V0.999999H40.2817V6.31H37.5217ZM50.7194 17.53C50.7194 20.65 53.3894 22.45 56.2694 22.45C58.1894 22.45 60.1094 21.67 61.0994 19.93L61.2194 22H64.3694V12.43C64.3694 8.47 61.6094 5.86 57.7694 5.86C54.9794 5.86 52.0694 7.36 51.2894 10.18L54.4694 10.9C55.0094 9.55 56.2694 8.74 57.7094 8.74C59.8394 8.74 60.9494 10.3 60.9494 12.28V13.27C59.7194 12.76 58.4294 12.52 57.1094 12.52C53.9594 12.52 50.7194 14.02 50.7194 17.53ZM54.1994 17.38C54.1994 15.55 56.1494 14.95 57.6494 14.95C58.2194 14.95 58.7894 15.01 59.3594 15.13C59.8994 15.28 60.4394 15.46 60.9494 15.67V16.03C60.9494 18.22 59.1794 19.69 57.0794 19.69C55.6694 19.69 54.1994 18.94 54.1994 17.38ZM67.6007 15.28H76.0007V12.22H67.6007V15.28ZM79.4828 0.699999V22H92.6828V18.85H83.0828V12.58H91.4828V9.43H83.0828V3.85H92.3828V0.699999H79.4828ZM94.0919 6.31L100.092 22H103.602L109.602 6.31H105.942L101.892 18.4L97.8719 6.31H94.0919ZM110.721 14.14C110.721 18.88 113.991 22.45 118.701 22.45C121.581 22.45 124.371 21.13 125.571 18.43L122.541 17.26C121.611 18.73 120.351 19.45 118.701 19.45C116.061 19.45 114.531 17.41 114.291 14.98H125.901V13.96C125.901 9.37 123.081 5.86 118.431 5.86C113.781 5.86 110.721 9.76 110.721 14.14ZM118.431 8.65C120.741 8.65 121.971 10.45 122.301 12.52H114.381C114.801 10.42 116.181 8.65 118.431 8.65ZM128.842 6.31V22H132.292V12.88C132.292 10.66 133.822 8.98 136.042 8.98C138.442 8.98 139.282 10.93 139.282 13.06V22H142.732V12.67C142.732 8.98 140.812 5.86 136.912 5.86C134.962 5.86 133.072 6.73 132.112 8.47L131.992 6.31H128.842ZM144.66 6.31V9.1H147.42V17.17C147.42 20.41 149.19 22.45 152.49 22.45C153.18 22.45 153.84 22.36 154.47 22.18C155.07 21.97 155.61 21.73 156.06 21.4L155.28 18.79C154.92 19 154.53 19.15 154.11 19.24C153.69 19.36 153.3 19.42 152.94 19.42C151.41 19.42 150.87 18.16 150.87 16.81V9.1H155.43V6.31H150.87V0.999999H147.42V6.31H144.66Z" fill="url(#paint0_linear_8_2942)"/>
<defs>
<linearGradient id="paint0_linear_8_2942" x1="-38.6605" y1="12.561" x2="165.314" y2="12.561" gradientUnits="userSpaceOnUse">
<stop stop-color="#8301BC"/>
<stop offset="1" stop-color="#D2286A"/>
</linearGradient>
</defs>
</svg>
