<svg width="22" height="22" viewBox="0 0 22 22" fill="none" xmlns="http://www.w3.org/2000/svg">
<ellipse cx="10.6137" cy="6.67185" rx="4.37986" ry="4.37986" stroke="#807A7A" stroke-width="1.5" stroke-linecap="round" stroke-linejoin="round"/>
<path fill-rule="evenodd" clip-rule="evenodd" d="M3.66652 17.1436C3.66534 16.8357 3.7342 16.5315 3.86789 16.2542C4.28742 15.4151 5.47049 14.9704 6.45218 14.7691C7.16017 14.618 7.87795 14.517 8.60016 14.467C9.93727 14.3495 11.2821 14.3495 12.6192 14.467C13.3414 14.5176 14.0591 14.6185 14.7672 14.7691C15.7489 14.9704 16.932 15.3732 17.3515 16.2542C17.6203 16.8196 17.6203 17.476 17.3515 18.0414C16.932 18.9224 15.7489 19.3251 14.7672 19.5181C14.06 19.6754 13.342 19.7792 12.6192 19.8286C11.5309 19.9208 10.4375 19.9376 9.34692 19.8789C9.0952 19.8789 8.85187 19.8789 8.60016 19.8286C7.88008 19.7798 7.1648 19.676 6.46057 19.5181C5.47049 19.3251 4.29581 18.9224 3.86789 18.0414C3.73489 17.7608 3.66609 17.4541 3.66652 17.1436Z" stroke="#807A7A" stroke-width="1.5" stroke-linecap="round" stroke-linejoin="round"/>
</svg>
