<svg fill="none" height="20" viewBox="0 0 20 20" width="20" xmlns="http://www.w3.org/2000/svg"><g opacity=".5"><path d="m0 0h20v20h-20z" fill="#fff"/><path d="m10.017 1.66699c-4.84167 0-8.35001 3.95-8.35001 8.33331 0 1.4.40834 2.8417 1.125 4.1584.13334.2166.15.4916.05834.75l-.55834 1.8666c-.125.45.25834.7834.68334.65l1.68333-.5c.45833-.15.81667.0417 1.2425.3 1.21667.7167 2.7325 1.0834 4.09914 1.0834 4.1334 0 8.3334-3.1917 8.3334-8.33337 0-4.43334-3.5834-8.30834-8.3167-8.30834" fill="#000" opacity=".4"/><path clip-rule="evenodd" d="m9.98386 11.0758c-.59166-.0083-1.06666-.4833-1.06666-1.075 0-.58331.48333-1.06664 1.06666-1.05831.59164 0 1.06664.475 1.06664 1.06671 0 .5833-.475 1.0666-1.06664 1.0666zm-3.842 0c-.58333 0-1.06666-.4833-1.06666-1.0666 0-.59169.475-1.06669 1.06666-1.06669.59167 0 1.06667.475 1.06667 1.06669 0 .5833-.475 1.0583-1.06667 1.0666zm6.61684-1.0666c0 .5833.475 1.0666 1.0667 1.0666.5916 0 1.0666-.4833 1.0666-1.0666 0-.59171-.475-1.06671-1.0666-1.06671-.5917 0-1.0667.475-1.0667 1.06671z" fill="#fff" fill-rule="evenodd"/></g></svg>