<svg fill="none" height="240" viewBox="0 0 206 240" width="206" xmlns="http://www.w3.org/2000/svg" xmlns:xlink="http://www.w3.org/1999/xlink"><filter id="a" color-interpolation-filters="sRGB" filterUnits="userSpaceOnUse" height="238.5" width="206" x="0" y=".708008"><feFlood flood-opacity="0" result="BackgroundImageFix"/><feColorMatrix in="SourceAlpha" result="hardAlpha" type="matrix" values="0 0 0 0 0 0 0 0 0 0 0 0 0 0 0 0 0 0 127 0"/><feOffset dy="14"/><feGaussianBlur stdDeviation="17.5"/><feColorMatrix type="matrix" values="0 0 0 0 0.208044 0 0 0 0 0.283314 0 0 0 0 0.429427 0 0 0 0.057 0"/><feBlend in2="BackgroundImageFix" mode="normal" result="effect1_dropShadow_38_138"/><feBlend in="SourceGraphic" in2="effect1_dropShadow_38_138" mode="normal" result="shape"/></filter><filter id="b" color-interpolation-filters="sRGB" filterUnits="userSpaceOnUse" height="51.2002" width="51.2" x="131" y="138.708"><feFlood flood-opacity="0" result="BackgroundImageFix"/><feColorMatrix in="SourceAlpha" result="hardAlpha" type="matrix" values="0 0 0 0 0 0 0 0 0 0 0 0 0 0 0 0 0 0 127 0"/><feOffset dy="2"/><feGaussianBlur stdDeviation="4"/><feColorMatrix type="matrix" values="0 0 0 0 0.337255 0 0 0 0 0.411765 0 0 0 0 1 0 0 0 0.15 0"/><feBlend in2="BackgroundImageFix" mode="normal" result="effect1_dropShadow_38_138"/><feBlend in="SourceGraphic" in2="effect1_dropShadow_38_138" mode="normal" result="shape"/></filter><linearGradient id="c"><stop offset="0" stop-color="#8301bc"/><stop offset="1" stop-color="#d2286a"/></linearGradient><linearGradient id="d" gradientUnits="userSpaceOnUse" x1="132.116" x2="175.109" xlink:href="#c" y1="162.308" y2="162.308"/><linearGradient id="e" gradientUnits="userSpaceOnUse" x1="82.3284" x2="117.749" xlink:href="#c" y1="112.303" y2="112.303"/><linearGradient id="f" gradientUnits="userSpaceOnUse" x1="77.6531" x2="92.31" xlink:href="#c" y1="94.053" y2="94.053"/><linearGradient id="g" gradientUnits="userSpaceOnUse" x1="111.653" x2="126.31" xlink:href="#c" y1="94.053" y2="94.053"/><g filter="url(#a)"><path clip-rule="evenodd" d="m86.3113 38.3968c0-9.217 7.4718-16.6888 16.6887-16.6888 9.217 0 16.689 7.4718 16.689 16.6888v.4647c19.445 6.873 33.377 25.4182 33.377 47.2174v36.2921h.281s.064 8.337 5.635 8.337c2.099 0 4.323.852 6.279 1.914 3.957 2.148 5.739 6.644 5.739 11.147 0 8.956-7.261 16.217-16.217 16.217h-103.9312c-8.7547 0-15.8518-7.097-15.8518-15.852 0-4.705 2.0048-9.349 6.1664-11.544 1.984-1.047 4.1461-1.882 5.9962-1.882 2.996 0 4.8069-3.042 5.7712-5.451v-39.1781c0-21.7992 13.9319-40.3444 33.3775-47.2174zm16.1887 151.8112c11.322 0 20.5-4.589 20.5-10.25s-9.178-10.25-20.5-10.25c-11.3218 0-20.5 4.589-20.5 10.25s9.1782 10.25 20.5 10.25z" fill="#e284ce" fill-opacity=".24" fill-rule="evenodd"/></g><g filter="url(#b)"><circle cx="156.6" cy="162.308" fill="url(#d)" r="17.6"/></g><path d="m156.509 168.357c3.05 0 4.864-2.501 4.864-6.471s-1.831-6.428-4.864-6.428c-3.043 0-4.882 2.475-4.882 6.437 0 3.979 1.822 6.462 4.882 6.462zm0-1.813c-1.685 0-2.647-1.719-2.647-4.658 0-2.887.979-4.615 2.647-4.615 1.658 0 2.629 1.719 2.629 4.624 0 2.939-.954 4.649-2.629 4.649z" fill="#fff"/><g clip-rule="evenodd" fill-rule="evenodd"><path d="m88 111.22c0 .797.4749 1.515 1.2232 1.79 2.4084.885 8.0037 2.698 13.4268 2.698 5.409 0 10.818-1.803 13.153-2.691.734-.279 1.197-.989 1.197-1.774 0-1.436-1.492-2.435-2.854-1.979-2.748.921-7.13 2.098-11.569 2.098-4.475 0-8.9504-1.197-11.7384-2.12-1.3585-.45-2.8386.547-2.8386 1.978z" fill="url(#e)"/><path d="m80 93.7442c0-.5696.2223-1.118.6546-1.4888 1.0647-.9134 3.2685-2.5474 5.4076-2.5474 2.1481 0 4.2961 1.6477 5.3197 2.5587.4101.3651.6181.8946.6181 1.4436 0 1.9506-2.6498 3.0602-4.5221 2.513-.4721-.138-.9582-.2203-1.4459-.2203-.5148 0-1.0297.0917-1.5295.2438-1.8727.57-4.5025-.5451-4.5025-2.5026z" fill="url(#f)" opacity=".2"/><path d="m114 93.7442c0-.5696.222-1.118.655-1.4888 1.064-.9134 3.268-2.5474 5.407-2.5474 2.148 0 4.296 1.6477 5.32 2.5587.41.3651.618.8946.618 1.4436 0 1.9506-2.65 3.0602-4.522 2.513-.472-.138-.958-.2203-1.446-.2203-.515 0-1.03.0917-1.529.2438-1.873.57-4.503-.5451-4.503-2.5026z" fill="url(#g)" opacity=".2"/></g><g stroke="#5669ff" stroke-linecap="round" stroke-linejoin="round" stroke-width="3"><path d="m34.5532 59.1525c-1.9409-10.769 6.6478-23.5047 16.7039-26.1525" opacity=".1"/><path d="m18.6345 54.8539c-2.5125-13.9403 8.6054-30.4264 21.6228-33.8539" opacity=".1"/></g></svg>