<svg fill="none" height="30" viewBox="0 0 209 30" width="209" xmlns="http://www.w3.org/2000/svg" xmlns:xlink="http://www.w3.org/1999/xlink"><linearGradient id="a" gradientUnits="userSpaceOnUse" x1="-43.4613" x2="215.476" y1="14.5" y2="14.5"><stop offset="0" stop-color="#8301bc"/><stop offset="1" stop-color="#d2286a"/></linearGradient><path d="m.901563.599998v28.400002h4.759997v-20.4l14.16004 20.4h4.32v-28.400002h-4.76v20.320002l-14.16004-20.320002zm27.588137 17.920002c0 6.32 4.36 11.08 10.64 11.08 3.84 0 7.56-1.76 9.16-5.36l-4.04-1.56c-1.24 1.96-2.92 2.92-5.12 2.92-3.52 0-5.56-2.72-5.88-5.96h15.48v-1.36c0-6.12-3.76-10.8-9.96-10.8s-10.28 5.2-10.28 11.04zm10.28-7.32c3.08 0 4.72 2.4 5.16 5.16h-10.56c.56-2.8 2.4-5.16 5.4-5.16zm11.9259-3.12v3.72h3.68v10.76c0 4.32 2.36 7.04 6.76 7.04.92 0 1.8-.12 2.64-.36.8-.28 1.52-.6 2.12-1.04l-1.04-3.48c-.48.28-1 .48-1.56.6-.56.16-1.08.24-1.56.24-2.04 0-2.76-1.68-2.76-3.48v-10.28h6.08v-3.72h-6.08v-7.080002h-4.6v7.080002zm17.5969 14.96c0 4.16 3.56 6.56 7.4 6.56 2.56 0 5.12-1.04 6.44-3.36l.16 2.76h4.2v-12.76c0-5.28-3.68-8.76-8.8-8.76-3.72 0-7.6 2-8.64 5.76l4.24.96c.72-1.8 2.4-2.88 4.32-2.88 2.84 0 4.32 2.08 4.32 4.72v1.32c-1.64-.68-3.36-1-5.12-1-4.2 0-8.52 2-8.52 6.68zm4.64-.2c0-2.44 2.6-3.24 4.6-3.24.76 0 1.52.08 2.28.24.72.2 1.44.44 2.12.72v.48c0 2.92-2.36 4.88-5.16 4.88-1.88 0-3.84-1-3.84-3.08zm17.8684-2.8h11.2001v-4.08h-11.2001zm15.8431-19.440002v28.400002h17.6v-4.2h-12.8v-8.36h11.2v-4.2h-11.2v-7.44h12.4v-4.200002zm19.479 7.480002 8 20.92h4.68l8-20.92h-4.88l-5.4 16.12-5.36-16.12zm22.171 10.44c0 6.32 4.36 11.08 10.64 11.08 3.84 0 7.56-1.76 9.16-5.36l-4.04-1.56c-1.24 1.96-2.92 2.92-5.12 2.92-3.52 0-5.56-2.72-5.88-5.96h15.48v-1.36c0-6.12-3.76-10.8-9.96-10.8s-10.28 5.2-10.28 11.04zm10.28-7.32c3.08 0 4.72 2.4 5.16 5.16h-10.56c.56-2.8 2.4-5.16 5.4-5.16zm13.883-3.12v20.92h4.6v-12.16c0-2.96 2.04-5.2 5-5.2 3.2 0 4.32 2.6 4.32 5.44v11.92h4.6v-12.44c0-4.92-2.56-9.08-7.76-9.08-2.6 0-5.12 1.16-6.4 3.48l-.16-2.88zm21.09 0v3.72h3.68v10.76c0 4.32 2.36 7.04 6.76 7.04.92 0 1.8-.12 2.64-.36.8-.28 1.52-.6 2.12-1.04l-1.04-3.48c-.48.28-1 .48-1.56.6-.56.16-1.08.24-1.56.24-2.04 0-2.76-1.68-2.76-3.48v-10.28h6.08v-3.72h-6.08v-7.080002h-4.6v7.080002z" fill="url(#a)"/></svg>