<svg fill="none" height="69" viewBox="0 0 77 69" width="77" xmlns="http://www.w3.org/2000/svg" xmlns:xlink="http://www.w3.org/1999/xlink"><linearGradient id="a" gradientUnits="userSpaceOnUse" x1="0" x2="77" y1="34.4938" y2="34.4938"><stop offset="0" stop-color="#8200bc"/><stop offset="1" stop-color="#d22869"/></linearGradient><clipPath id="b"><path d="m0 0h77v69h-77z"/></clipPath><g clip-path="url(#b)"><path d="m72.4561 0h-26.2882c-.4322 0-.852.0373849-1.2718.099693h-.5927c-3.7907 0-6.8653 3.102947-6.8653 6.928657v32.64945l-26.3252-37.55932c-.889-1.27109-2.33371-2.018787-3.87717-2.018787h-2.17319c-2.79057 0-5.06254 2.292937-5.06254 5.109267v55.82804c0 4.399 3.53143 7.9505 7.87781 7.9505h62.19519c.1975 0 .3827 0 .568-.0249h.1852c3.4203 0 6.1861-2.7914 6.1861-6.2433v-18.3559c-1.3458-6.4676-8.8409-5.9691-8.8409-5.9691-2.2226 0-4.0253-1.8194-4.0253-4.0625 0-2.0562 1.5187-3.7634 3.4944-4.0127.1605 0 .3334-.0249.5186-.0374 8.31-.81 8.8409-5.9691 8.8409-5.9691v-19.72672c0-2.52971-2.0374-4.58588-4.5439-4.58588zm-4.297 22.7175c-6.2109 0-11.2611 5.0844-11.2611 11.365 0 6.2807 5.0379 11.365 11.2611 11.365v14.6051h-56.614c-1.136 0-2.04975-.9347-2.0374-2.0811l.03704-1.8817v-39.5906l25.83126 36.849c1.1978 1.7197 3.161 2.7291 5.2354 2.7291 3.5438 0 6.4208-2.9036 6.4208-6.48v-40.67478h21.1392v13.79498z" fill="url(#a)"/></g></svg>