<svg width="375" height="812" viewBox="0 0 375 812" fill="none" xmlns="http://www.w3.org/2000/svg">
<rect width="375" height="812" fill="white"/>
<rect opacity="0.35" x="336.833" y="17.833" width="21" height="10.3333" rx="2.16667" stroke="black"/>
<path opacity="0.4" d="M359.333 21V25C360.138 24.6612 360.661 23.8731 360.661 23C360.661 22.1269 360.138 21.3388 359.333 21Z" fill="black"/>
<rect x="338.333" y="19.333" width="18" height="7.33333" rx="1.33333" fill="black"/>
<path fill-rule="evenodd" clip-rule="evenodd" d="M323.667 19.6155C325.892 19.6156 328.031 20.4697 329.644 22.0013C329.765 22.1196 329.959 22.1181 330.079 21.998L331.239 20.8277C331.3 20.7667 331.334 20.6842 331.333 20.5984C331.333 20.5125 331.298 20.4304 331.237 20.3702C327.005 16.318 320.329 16.318 316.097 20.3702C316.035 20.4304 316.001 20.5125 316 20.5983C315.999 20.6842 316.033 20.7667 316.094 20.8277L317.255 21.998C317.374 22.1183 317.568 22.1198 317.69 22.0013C319.302 20.4696 321.442 19.6155 323.667 19.6155ZM323.667 23.4231C324.889 23.423 326.068 23.877 326.974 24.6968C327.097 24.8131 327.29 24.8106 327.409 24.6911L328.569 23.5208C328.63 23.4594 328.663 23.3761 328.663 23.2896C328.662 23.203 328.626 23.1204 328.564 23.0603C325.805 20.4959 321.532 20.4959 318.773 23.0603C318.71 23.1204 318.675 23.2031 318.674 23.2896C318.673 23.3762 318.707 23.4595 318.768 23.5208L319.927 24.6911C320.047 24.8106 320.24 24.8131 320.362 24.6968C321.268 23.8775 322.446 23.4236 323.667 23.4231ZM325.989 25.985C325.991 26.0717 325.957 26.1554 325.895 26.2162L323.89 28.2382C323.831 28.2976 323.751 28.3311 323.667 28.3311C323.583 28.3311 323.503 28.2976 323.445 28.2382L321.439 26.2162C321.377 26.1553 321.343 26.0717 321.345 25.9849C321.347 25.8981 321.384 25.8159 321.449 25.7578C322.729 24.6755 324.605 24.6755 325.886 25.7578C325.95 25.816 325.988 25.8982 325.989 25.985Z" fill="black"/>
<path fill-rule="evenodd" clip-rule="evenodd" d="M310 17.667H309C308.448 17.667 308 18.1147 308 18.667V27.3337C308 27.8859 308.448 28.3337 309 28.3337H310C310.552 28.3337 311 27.8859 311 27.3337V18.667C311 18.1147 310.552 17.667 310 17.667ZM304.333 20.0003H305.333C305.886 20.0003 306.333 20.448 306.333 21.0003V27.3337C306.333 27.8859 305.886 28.3337 305.333 28.3337H304.333C303.781 28.3337 303.333 27.8859 303.333 27.3337V21.0003C303.333 20.448 303.781 20.0003 304.333 20.0003ZM300.667 22.3337H299.667C299.114 22.3337 298.667 22.7814 298.667 23.3337V27.3337C298.667 27.8859 299.114 28.3337 299.667 28.3337H300.667C301.219 28.3337 301.667 27.8859 301.667 27.3337V23.3337C301.667 22.7814 301.219 22.3337 300.667 22.3337ZM296 24.3337H295C294.448 24.3337 294 24.7814 294 25.3337V27.3337C294 27.8859 294.448 28.3337 295 28.3337H296C296.552 28.3337 297 27.8859 297 27.3337V25.3337C297 24.7814 296.552 24.3337 296 24.3337Z" fill="black"/>
<path d="M37.991 28.2124C40.679 28.2124 42.2903 26.1177 42.2903 22.5947C42.2903 18.6763 40.1883 17.2114 38.0203 17.2114C35.7352 17.2114 34.0726 18.7568 34.0726 20.9102C34.0726 22.9536 35.6033 24.3745 37.5809 24.3745C38.9505 24.3745 40.0345 23.686 40.4446 22.6606H40.4739C40.4739 25.1216 39.6683 26.6816 38.0057 26.6816C37.0389 26.6816 36.3284 26.2422 36.0647 25.4072H34.1897C34.4827 27.0771 36.0135 28.2124 37.991 28.2124ZM38.0203 22.9097C36.8191 22.9097 35.9256 22.0454 35.9256 20.8369C35.9256 19.6797 36.8631 18.7642 38.0423 18.7642C39.2361 18.7642 40.159 19.687 40.159 20.8735C40.159 22.0527 39.2435 22.9097 38.0203 22.9097ZM44.6417 26.4985C45.2276 26.4985 45.6891 26.0371 45.6891 25.4438C45.6891 24.8579 45.2276 24.3892 44.6417 24.3892C44.0484 24.3892 43.587 24.8579 43.587 25.4438C43.587 26.0371 44.0484 26.4985 44.6417 26.4985ZM44.6417 21.0273C45.2276 21.0273 45.6891 20.5586 45.6891 19.9727C45.6891 19.3867 45.2276 18.918 44.6417 18.918C44.0484 18.918 43.587 19.3867 43.587 19.9727C43.587 20.5586 44.0484 21.0273 44.6417 21.0273ZM52.1786 28H53.9804V25.9712H55.4159V24.4185H53.9804V17.4312H51.2924C48.9999 20.7637 47.8207 22.6387 46.9052 24.3599V25.9712H52.1786V28ZM48.6044 24.4111C49.4467 22.873 50.4721 21.2837 52.1786 18.8374H52.2079V24.4624H48.6044V24.4111ZM58.9465 28H60.7995V17.4312H58.9318L56.1706 19.3721V21.1079L58.9025 19.2329H58.9465V28Z" fill="black"/>
<path d="M87.9016 429.6V458H92.6616V437.6L106.822 458H111.142V429.6H106.382V449.92L92.2216 429.6H87.9016ZM115.49 447.52C115.49 453.84 119.85 458.6 126.13 458.6C129.97 458.6 133.69 456.84 135.29 453.24L131.25 451.68C130.01 453.64 128.33 454.6 126.13 454.6C122.61 454.6 120.57 451.88 120.25 448.64H135.73V447.28C135.73 441.16 131.97 436.48 125.77 436.48C119.57 436.48 115.49 441.68 115.49 447.52ZM125.77 440.2C128.85 440.2 130.49 442.6 130.93 445.36H120.37C120.93 442.56 122.77 440.2 125.77 440.2ZM137.696 437.08V440.8H141.376V451.56C141.376 455.88 143.736 458.6 148.136 458.6C149.056 458.6 149.936 458.48 150.776 458.24C151.576 457.96 152.296 457.64 152.896 457.2L151.856 453.72C151.376 454 150.856 454.2 150.296 454.32C149.736 454.48 149.216 454.56 148.736 454.56C146.696 454.56 145.976 452.88 145.976 451.08V440.8H152.056V437.08H145.976V430H141.376V437.08H137.696ZM155.293 452.04C155.293 456.2 158.853 458.6 162.693 458.6C165.253 458.6 167.813 457.56 169.133 455.24L169.293 458H173.493V445.24C173.493 439.96 169.813 436.48 164.693 436.48C160.973 436.48 157.093 438.48 156.053 442.24L160.293 443.2C161.013 441.4 162.693 440.32 164.613 440.32C167.453 440.32 168.933 442.4 168.933 445.04V446.36C167.293 445.68 165.572 445.36 163.812 445.36C159.613 445.36 155.293 447.36 155.293 452.04ZM159.933 451.84C159.933 449.4 162.533 448.6 164.533 448.6C165.293 448.6 166.053 448.68 166.813 448.84C167.533 449.04 168.253 449.28 168.933 449.56V450.04C168.933 452.96 166.573 454.92 163.773 454.92C161.893 454.92 159.933 453.92 159.933 451.84ZM177.801 449.04H189.001V444.96H177.801V449.04ZM193.644 429.6V458H211.244V453.8H198.444V445.44H209.644V441.24H198.444V433.8H210.844V429.6H193.644ZM213.123 437.08L221.123 458H225.803L233.803 437.08H228.923L223.523 453.2L218.163 437.08H213.123ZM235.294 447.52C235.294 453.84 239.654 458.6 245.934 458.6C249.774 458.6 253.494 456.84 255.094 453.24L251.054 451.68C249.814 453.64 248.134 454.6 245.934 454.6C242.414 454.6 240.374 451.88 240.054 448.64H255.534V447.28C255.534 441.16 251.774 436.48 245.574 436.48C239.374 436.48 235.294 441.68 235.294 447.52ZM245.574 440.2C248.654 440.2 250.294 442.6 250.734 445.36H240.174C240.734 442.56 242.574 440.2 245.574 440.2ZM259.457 437.08V458H264.057V445.84C264.057 442.88 266.097 440.64 269.057 440.64C272.257 440.64 273.377 443.24 273.377 446.08V458H277.977V445.56C277.977 440.64 275.417 436.48 270.217 436.48C267.617 436.48 265.097 437.64 263.817 439.96L263.657 437.08H259.457ZM280.547 437.08V440.8H284.227V451.56C284.227 455.88 286.587 458.6 290.987 458.6C291.907 458.6 292.787 458.48 293.627 458.24C294.427 457.96 295.147 457.64 295.747 457.2L294.707 453.72C294.227 454 293.707 454.2 293.147 454.32C292.587 454.48 292.067 454.56 291.587 454.56C289.547 454.56 288.827 452.88 288.827 451.08V440.8H294.907V437.08H288.827V430H284.227V437.08H280.547Z" fill="url(#paint0_linear_8_2255)"/>
<g clip-path="url(#clip0_8_2255)">
<path d="M224.456 341H198.168C197.736 341 197.316 341.037 196.896 341.1H196.303C192.513 341.1 189.438 344.203 189.438 348.028V380.678L163.113 343.118C162.224 341.847 160.779 341.1 159.236 341.1H157.063C154.272 341.1 152 343.393 152 346.209V402.037C152 406.436 155.531 409.988 159.878 409.988H222.073C222.271 409.988 222.456 409.988 222.641 409.963H222.826C226.246 409.963 229.012 407.171 229.012 403.719V385.363C227.666 378.896 220.171 379.394 220.171 379.394C217.949 379.394 216.146 377.575 216.146 375.332C216.146 373.276 217.665 371.568 219.64 371.319C219.801 371.319 219.974 371.294 220.159 371.282C228.469 370.472 229 365.313 229 365.313V345.586C229 343.056 226.963 341 224.456 341ZM220.159 363.718C213.948 363.718 208.898 368.802 208.898 375.083C208.898 381.363 213.936 386.448 220.159 386.448V401.053H163.545C162.409 401.053 161.495 400.118 161.508 398.971L161.545 397.09V357.499L187.376 394.348C188.574 396.068 190.537 397.077 192.611 397.077C196.155 397.077 199.032 394.174 199.032 390.597V349.923H220.171V363.718H220.159Z" fill="url(#paint1_linear_8_2255)"/>
</g>
<circle cx="258.5" cy="142.5" r="6.5" fill="url(#paint2_linear_8_2255)"/>
<circle cx="264.5" cy="709.5" r="6.5" fill="url(#paint3_linear_8_2255)"/>
<ellipse cx="58.5" cy="219" rx="10.5" ry="10" fill="url(#paint4_linear_8_2255)"/>
<ellipse cx="300.5" cy="543" rx="10.5" ry="10" fill="url(#paint5_linear_8_2255)"/>
<ellipse cx="104.5" cy="719" rx="2.5" ry="2" fill="url(#paint6_linear_8_2255)"/>
<ellipse cx="316" cy="380.5" rx="5" ry="5.5" fill="url(#paint7_linear_8_2255)"/>
<ellipse cx="175" cy="606.5" rx="5" ry="5.5" fill="url(#paint8_linear_8_2255)"/>
<ellipse cx="210.5" cy="289" rx="2.5" ry="2" fill="url(#paint9_linear_8_2255)"/>
<ellipse cx="68.5" cy="526" rx="2.5" ry="2" fill="url(#paint10_linear_8_2255)"/>
<defs>
<linearGradient id="paint0_linear_8_2255" x1="43.5387" y1="443.5" x2="302.476" y2="443.5" gradientUnits="userSpaceOnUse">
<stop stop-color="#8301BC"/>
<stop offset="1" stop-color="#D2286A"/>
</linearGradient>
<linearGradient id="paint1_linear_8_2255" x1="152" y1="375.494" x2="229" y2="375.494" gradientUnits="userSpaceOnUse">
<stop stop-color="#8200BC"/>
<stop offset="1" stop-color="#D22869"/>
</linearGradient>
<linearGradient id="paint2_linear_8_2255" x1="249.458" y1="142.5" x2="265.336" y2="142.5" gradientUnits="userSpaceOnUse">
<stop stop-color="#8301BC"/>
<stop offset="1" stop-color="#D2286A"/>
</linearGradient>
<linearGradient id="paint3_linear_8_2255" x1="255.458" y1="709.5" x2="271.336" y2="709.5" gradientUnits="userSpaceOnUse">
<stop stop-color="#8301BC"/>
<stop offset="1" stop-color="#D2286A"/>
</linearGradient>
<linearGradient id="paint4_linear_8_2255" x1="43.893" y1="219" x2="69.5424" y2="219" gradientUnits="userSpaceOnUse">
<stop stop-color="#8301BC"/>
<stop offset="1" stop-color="#D2286A"/>
</linearGradient>
<linearGradient id="paint5_linear_8_2255" x1="285.893" y1="543" x2="311.542" y2="543" gradientUnits="userSpaceOnUse">
<stop stop-color="#8301BC"/>
<stop offset="1" stop-color="#D2286A"/>
</linearGradient>
<linearGradient id="paint6_linear_8_2255" x1="101.022" y1="719" x2="107.129" y2="719" gradientUnits="userSpaceOnUse">
<stop stop-color="#8301BC"/>
<stop offset="1" stop-color="#D2286A"/>
</linearGradient>
<linearGradient id="paint7_linear_8_2255" x1="309.044" y1="380.5" x2="321.258" y2="380.5" gradientUnits="userSpaceOnUse">
<stop stop-color="#8301BC"/>
<stop offset="1" stop-color="#D2286A"/>
</linearGradient>
<linearGradient id="paint8_linear_8_2255" x1="168.044" y1="606.5" x2="180.258" y2="606.5" gradientUnits="userSpaceOnUse">
<stop stop-color="#8301BC"/>
<stop offset="1" stop-color="#D2286A"/>
</linearGradient>
<linearGradient id="paint9_linear_8_2255" x1="207.022" y1="289" x2="213.129" y2="289" gradientUnits="userSpaceOnUse">
<stop stop-color="#8301BC"/>
<stop offset="1" stop-color="#D2286A"/>
</linearGradient>
<linearGradient id="paint10_linear_8_2255" x1="65.0221" y1="526" x2="71.1292" y2="526" gradientUnits="userSpaceOnUse">
<stop stop-color="#8301BC"/>
<stop offset="1" stop-color="#D2286A"/>
</linearGradient>
<clipPath id="clip0_8_2255">
<rect width="77" height="69" fill="white" transform="translate(152 341)"/>
</clipPath>
</defs>
</svg>
