<svg width="23" height="23" viewBox="0 0 23 23" fill="none" xmlns="http://www.w3.org/2000/svg">
<path fill-rule="evenodd" clip-rule="evenodd" d="M15.7271 2.6531L15.728 3.37149C18.3679 3.57838 20.1117 5.37723 20.1146 8.13585L20.125 16.2106C20.1288 19.2182 18.2392 21.0688 15.2105 21.0736L7.81222 21.0832C4.80239 21.087 2.8892 19.1924 2.88541 16.1761L2.87501 8.19619C2.87122 5.41938 4.55355 3.62532 7.19341 3.38298L7.19247 2.66459C7.19152 2.24313 7.50376 1.92608 7.92009 1.92608C8.33641 1.92513 8.64865 2.24122 8.6496 2.66267L8.65055 3.33317L14.2709 3.32551L14.27 2.65501C14.269 2.23356 14.5813 1.91746 14.9976 1.91651C15.4044 1.91555 15.7261 2.23164 15.7271 2.6531ZM4.3331 8.49211L18.6584 8.47296V8.13771C18.6177 6.07832 17.5845 4.99786 15.7299 4.83694L15.7309 5.57449C15.7309 5.98637 15.4101 6.313 15.0033 6.313C14.587 6.31395 14.2738 5.98828 14.2738 5.57641L14.2728 4.80055L8.65245 4.80821L8.6534 5.58311C8.6534 5.99595 8.3421 6.32162 7.92578 6.32162C7.50946 6.32257 7.19627 5.99786 7.19627 5.58503L7.19532 4.84748C5.35025 5.03235 4.32931 6.11664 4.33215 8.19422L4.3331 8.49211ZM14.605 12.8455V12.8561C14.6144 13.2967 14.974 13.631 15.4102 13.6214C15.836 13.6109 16.1757 13.2459 16.1662 12.8053C16.1463 12.3838 15.8048 12.04 15.3799 12.0409C14.9447 12.0505 14.604 12.4049 14.605 12.8455ZM15.3864 17.1463C14.9512 17.1367 14.6002 16.7737 14.5992 16.3331C14.5897 15.8925 14.9389 15.5275 15.3741 15.517H15.3836C15.8283 15.517 16.1888 15.88 16.1888 16.3302C16.1897 16.7804 15.8302 17.1453 15.3864 17.1463ZM10.7066 12.861C10.7255 13.3016 11.086 13.6454 11.5213 13.6263C11.9471 13.6062 12.2867 13.2422 12.2678 12.8016C12.2574 12.3705 11.9073 12.0353 11.4815 12.0363C11.0463 12.0554 10.7057 12.4204 10.7066 12.861ZM11.5251 17.1033C11.0899 17.1224 10.7303 16.7786 10.7105 16.338C10.7105 15.8974 11.0501 15.5334 11.4854 15.5133C11.9112 15.5123 12.2622 15.8475 12.2717 16.2776C12.2915 16.7192 11.9509 17.0832 11.5251 17.1033ZM6.80835 12.8944C6.82727 13.335 7.18777 13.6799 7.62302 13.6597C8.0488 13.6406 8.38849 13.2757 8.36862 12.835C8.35915 12.404 8.00906 12.0688 7.58233 12.0697C7.14709 12.0889 6.8074 12.4538 6.80835 12.8944ZM7.62676 17.108C7.19152 17.1281 6.83196 16.7832 6.81209 16.3426C6.81115 15.902 7.15178 15.5371 7.58702 15.5179C8.01281 15.517 8.36384 15.8522 8.37331 16.2832C8.39318 16.7239 8.05349 17.0888 7.62676 17.108Z" fill="#2C3550"/>

</svg>
