<svg width="24" height="20" viewBox="0 0 24 20" fill="none" xmlns="http://www.w3.org/2000/svg">
<path fill-rule="evenodd" clip-rule="evenodd" d="M0 1.31399C0 0.637373 0.548506 0.0888672 1.22512 0.0888672H22.7749C23.4515 0.0888672 24 0.637373 24 1.31399C24 1.99061 23.4515 2.53911 22.7749 2.53911H1.22512C0.548506 2.53911 0 1.99061 0 1.31399ZM0 9.88977C0 9.21316 0.548506 8.66465 1.22512 8.66465H16.7749C17.4515 8.66465 18 9.21316 18 9.88977C18 10.5664 17.4515 11.1149 16.7749 11.1149H1.22512C0.548506 11.1149 0 10.5664 0 9.88977ZM1.22512 17.2406C0.548506 17.2406 0 17.7891 0 18.4658C0 19.1424 0.548506 19.6909 1.22512 19.6909H22.7749C23.4515 19.6909 24 19.1424 24 18.4658C24 17.7891 23.4515 17.2406 22.7749 17.2406H1.22512Z" fill="white"/>
</svg>
