<svg width="23" height="23" viewBox="0 0 23 25" fill="none" xmlns="http://www.w3.org/2000/svg">
<path opacity="0.3" d="M11.5 13.8255C12.0954 13.8255 12.5781 13.3248 12.5781 12.7072C12.5781 12.0896 12.0954 11.5889 11.5 11.5889C10.9046 11.5889 10.4219 12.0896 10.4219 12.7072C10.4219 13.3248 10.9046 13.8255 11.5 13.8255Z" fill="#D2CFD6"/>
<path d="M11.5 3.01514C6.34791 3.01514 2.15625 7.36307 2.15625 12.7072C2.15625 18.0514 6.34791 22.3993 11.5 22.3993C16.6521 22.3993 20.8438 18.0514 20.8438 12.7072C20.8438 7.36307 16.6521 3.01514 11.5 3.01514ZM16.2199 8.29593L14.114 13.7571C13.9694 14.1321 13.7528 14.4728 13.4775 14.7584C13.2021 15.0441 12.8737 15.2687 12.5121 15.4187L7.24725 17.6031C7.18194 17.6303 7.11039 17.6369 7.04148 17.6222C6.97257 17.6076 6.90932 17.5722 6.85958 17.5206C6.80984 17.4691 6.77579 17.4034 6.76165 17.332C6.74752 17.2605 6.75392 17.1863 6.78006 17.1185L8.886 11.6574C9.0306 11.2823 9.24715 10.9417 9.52252 10.656C9.79788 10.3704 10.1263 10.1458 10.4879 9.99578L15.7528 7.81133C15.8181 7.78421 15.8896 7.77757 15.9585 7.79224C16.0274 7.8069 16.0907 7.84222 16.1404 7.89381C16.1902 7.94541 16.2242 8.01102 16.2383 8.0825C16.2525 8.15398 16.2461 8.22819 16.2199 8.29593Z" fill="#D2CFD6"/>
</svg>
