<svg width="23" height="25" viewBox="0 0 23 25" fill="none" xmlns="http://www.w3.org/2000/svg">
<path opacity="0.3" d="M11.5 13.5466C12.0954 13.5466 12.5781 13.0379 12.5781 12.4104C12.5781 11.7829 12.0954 11.2742 11.5 11.2742C10.9046 11.2742 10.4219 11.7829 10.4219 12.4104C10.4219 13.0379 10.9046 13.5466 11.5 13.5466Z" fill="#D2CFD6"/>
<path d="M11.5 2.56323C6.34791 2.56323 2.15625 6.98077 2.15625 12.4105C2.15625 17.8402 6.34791 22.2578 11.5 22.2578C16.6521 22.2578 20.8438 17.8402 20.8438 12.4105C20.8438 6.98077 16.6521 2.56323 11.5 2.56323ZM16.2199 7.92857L14.114 13.4771C13.9694 13.8582 13.7528 14.2043 13.4775 14.4945C13.2021 14.7847 12.8737 15.013 12.5121 15.1654L7.24725 17.3848C7.18194 17.4123 7.11039 17.4191 7.04148 17.4042C6.97257 17.3893 6.90932 17.3534 6.85958 17.301C6.80984 17.2486 6.77579 17.1819 6.76165 17.1093C6.74752 17.0366 6.75392 16.9612 6.78006 16.8924L8.886 11.3439C9.0306 10.9628 9.24715 10.6167 9.52252 10.3265C9.79788 10.0362 10.1263 9.80802 10.4879 9.65563L15.7528 7.43621C15.8181 7.40866 15.8896 7.40191 15.9585 7.41681C16.0274 7.43171 16.0907 7.46759 16.1404 7.52002C16.1902 7.57244 16.2242 7.63909 16.2383 7.71172C16.2525 7.78434 16.2461 7.85974 16.2199 7.92857Z" fill="#D2CFD6"/>
</svg>
