<svg fill="none" height="30" viewBox="0 0 30 30" width="30" xmlns="http://www.w3.org/2000/svg" xmlns:xlink="http://www.w3.org/1999/xlink"><filter id="a" color-interpolation-filters="sRGB" filterUnits="userSpaceOnUse" height="42" width="42" x="-6" y="-6"><feFlood flood-opacity="0" result="BackgroundImageFix"/><feGaussianBlur in="BackgroundImageFix" stdDeviation="3"/><feComposite in2="SourceAlpha" operator="in" result="effect1_backgroundBlur_3_1291"/><feBlend in="SourceGraphic" in2="effect1_backgroundBlur_3_1291" mode="normal" result="shape"/></filter><linearGradient id="b" gradientUnits="userSpaceOnUse" x1="7.69449" x2="20.608" y1="15" y2="15"><stop offset="0" stop-color="#8301bc"/><stop offset="1" stop-color="#d2286a"/></linearGradient><g filter="url(#a)"><rect fill="#fff" fill-opacity=".7" height="30" rx="7" width="30"/></g><path d="m14.7894 18.9783-4.0467 2.0709c-.3231.1568-.7212.0458-.89931-.2509-.05153-.0919-.07933-.1937-.08118-.2975v-9.1758c0-1.75 1.28019-2.45 3.12249-2.45h4.3277c1.7861 0 3.1225.65333 3.1225 2.3333v9.2925c0 .1656-.0704.3243-.1957.4414-.1254.117-.2953.1828-.4725.1828-.1131-.0017-.2242-.0276-.3248-.0758l-4.0717-2.0709c-.15-.0757-.3308-.0757-.4808 0z" style="fill-rule:evenodd;clip-rule:evenodd;stroke-width:1.5;stroke-linecap:round;stroke-linejoin:round;fill:url(#b);stroke:url(#b)"/></svg>