<svg width="25" height="24" viewBox="0 0 25 24" fill="none" xmlns="http://www.w3.org/2000/svg">
<path d="M12.1624 2.28906C6.84161 2.28906 2.5127 6.61798 2.5127 11.9388C2.5127 17.2596 6.84161 21.5885 12.1624 21.5885C17.4832 21.5885 21.8121 17.2596 21.8121 11.9388C21.8121 6.61798 17.4832 2.28906 12.1624 2.28906ZM13.647 16.3925H10.6778C10.481 16.3925 10.2922 16.3143 10.153 16.1751C10.0138 16.0359 9.93555 15.8471 9.93555 15.6502C9.93555 15.4533 10.0138 15.2645 10.153 15.1253C10.2922 14.9861 10.481 14.9079 10.6778 14.9079H13.647C13.8438 14.9079 14.0326 14.9861 14.1719 15.1253C14.3111 15.2645 14.3893 15.4533 14.3893 15.6502C14.3893 15.8471 14.3111 16.0359 14.1719 16.1751C14.0326 16.3143 13.8438 16.3925 13.647 16.3925ZM15.8738 13.4233H8.45098C8.25411 13.4233 8.06531 13.3451 7.9261 13.2059C7.7869 13.0667 7.70869 12.8779 7.70869 12.6811C7.70869 12.4842 7.7869 12.2954 7.9261 12.1562C8.06531 12.017 8.25411 11.9388 8.45098 11.9388H15.8738C16.0707 11.9388 16.2595 12.017 16.3987 12.1562C16.5379 12.2954 16.6161 12.4842 16.6161 12.6811C16.6161 12.8779 16.5379 13.0667 16.3987 13.2059C16.2595 13.3451 16.0707 13.4233 15.8738 13.4233ZM17.3584 10.4542H6.96641C6.76954 10.4542 6.58074 10.376 6.44153 10.2368C6.30233 10.0976 6.22412 9.90878 6.22412 9.71192C6.22412 9.51505 6.30233 9.32625 6.44153 9.18704C6.58074 9.04784 6.76954 8.96963 6.96641 8.96963H17.3584C17.5553 8.96963 17.7441 9.04784 17.8833 9.18704C18.0225 9.32625 18.1007 9.51505 18.1007 9.71192C18.1007 9.90878 18.0225 10.0976 17.8833 10.2368C17.7441 10.376 17.5553 10.4542 17.3584 10.4542Z" fill="white"/>
</svg>
