<svg width="24" height="23" viewBox="0 0 24 23" fill="none" xmlns="http://www.w3.org/2000/svg">
<path d="M11.5623 21.0832C16.8551 21.0832 21.1457 16.7926 21.1457 11.4998C21.1457 6.20711 16.8551 1.9165 11.5623 1.9165C6.26961 1.9165 1.979 6.20711 1.979 11.4998C1.979 16.7926 6.26961 21.0832 11.5623 21.0832Z" stroke="#767676" stroke-width="1.5" stroke-linecap="round" stroke-linejoin="round"/>
<path d="M8.77393 8.62506C8.99923 7.98457 9.44395 7.44449 10.0293 7.10048C10.6147 6.75646 11.3029 6.63071 11.9721 6.74549C12.6412 6.86027 13.2482 7.20818 13.6855 7.7276C14.1227 8.24703 14.362 8.90443 14.361 9.58339C14.361 11.5001 11.486 12.4584 11.486 12.4584V14.0897" stroke="#767676" stroke-width="1.5" stroke-linecap="round" stroke-linejoin="round"/>
<path d="M11.5625 16.2915H11.5729" stroke="#767676" stroke-width="1.5" stroke-linecap="round" stroke-linejoin="round"/>
</svg>
