<svg width="23" height="25" viewBox="0 0 23 25" fill="none" xmlns="http://www.w3.org/2000/svg">
<path fill-rule="evenodd" clip-rule="evenodd" d="M11.5288 2.6177C13.6947 2.62764 15.7647 3.52229 17.2788 5.09291C18.8026 6.67346 19.6555 8.8107 19.6459 11.0275V11.0772C19.5884 14.0892 17.9592 16.8626 15.9276 19.0296C14.7776 20.2523 13.503 21.3359 12.1134 22.2504C11.7397 22.5784 11.1934 22.5784 10.8197 22.2504C8.75925 20.8587 6.93841 19.1092 5.46258 17.0713C4.16883 15.3019 3.43091 13.1746 3.35425 10.9579C3.37341 6.33548 7.03425 2.60776 11.5288 2.6177ZM11.5288 13.8108C12.2093 13.8108 12.8609 13.5424 13.3401 13.0553C13.8384 12.5484 14.1173 11.8734 14.1173 11.1666C14.1173 9.69541 12.9568 8.51248 11.5288 8.51248C10.1009 8.51248 8.95092 9.69541 8.95092 11.1666C8.95092 12.6189 10.0818 13.7909 11.5001 13.8108H11.5288Z" fill="#D2CFD6"/>
</svg>
