<svg width="17" height="21" viewBox="0 0 17 21" fill="none" xmlns="http://www.w3.org/2000/svg">
<path fill-rule="evenodd" clip-rule="evenodd" d="M13.535 5.72961C13.535 8.69443 11.2819 11.0979 8.50252 11.0979C5.72314 11.0979 3.47001 8.69443 3.47001 5.72961C3.47001 2.76479 5.72314 0.361328 8.50252 0.361328C11.2819 0.361328 13.535 2.76479 13.535 5.72961ZM12.822 14.1225C14.4221 14.4586 15.4668 15.0069 15.9145 15.8913C16.2507 16.5816 16.2507 17.4032 15.9145 18.0935C15.4668 18.9779 14.4636 19.5616 12.8054 19.8623C12.0666 20.0168 11.3186 20.1173 10.5669 20.163C9.8705 20.2425 9.17407 20.2425 8.46935 20.2425H7.20086C6.93556 20.2072 6.67854 20.1895 6.42982 20.1895C5.67807 20.1494 4.92999 20.0518 4.19131 19.8976C2.59119 19.5793 1.54655 19.0132 1.09885 18.1288C0.926017 17.7863 0.834901 17.4035 0.833541 17.0145C0.829939 16.6231 0.918299 16.2369 1.09056 15.8913C1.52997 15.0069 2.57461 14.4321 4.19131 14.1225C4.93324 13.9715 5.68388 13.874 6.43811 13.8307C7.81779 13.7153 9.20382 13.7153 10.5835 13.8307C11.3348 13.8761 12.0826 13.9736 12.822 14.1225Z" fill="white"/>
</svg>
