<svg fill="none" height="32" viewBox="0 0 32 32" width="32" xmlns="http://www.w3.org/2000/svg"><g clip-rule="evenodd" fill="#fff" fill-rule="evenodd"><path d="m8.66699 3.6665c-2.76771 0-5 2.23229-5 5v3.3333c0 .5523-.44771 1-1 1-.55228 0-1-.4477-1-1v-3.3333c0-3.87228 3.12772-7 7-7h3.33331c.5523 0 1 .44772 1 1 0 .55229-.4477 1-1 1z"/><path d="m19 2.6665c0-.55228.4477-1 1-1h3.3333c3.8723 0 7 3.12772 7 7v3.3333c0 .5523-.4477 1-1 1s-1-.4477-1-1v-3.3333c0-2.76771-2.2323-5-5-5h-3.3333c-.5523 0-1-.44771-1-1z"/><path d="m29.334 20.333c.5523 0 1 .4477 1 1v2c0 3.8723-3.1277 7-7 7h-2c-.5523 0-1-.4477-1-1s.4477-1 1-1h2c2.7677 0 5-2.2323 5-5v-2c0-.5523.4477-1 1-1z"/><path d="m2.66699 19c.55229 0 1 .4477 1 1v3.3333c0 2.7677 2.23229 5 5 5h3.33331c.5523 0 1 .4477 1 1s-.4477 1-1 1h-3.33331c-3.87228 0-7-3.1277-7-7v-3.3333c0-.5523.44772-1 1-1z"/><path d="m11.0411 10.3736c-.413.413-.7071 1.1137-.7071 2.2929v6.6667c0 1.1792.2941 1.8799.7071 2.2929s1.1137.7071 2.2929.7071h5.3333c1.1792 0 1.8799-.2941 2.2929-.7071s.7071-1.1137.7071-2.2929v-6.6667c0-1.1792-.2941-1.8799-.7071-2.2929-.413-.41298-1.1137-.7071-2.2929-.7071h-5.3333c-1.1792 0-1.8799.29412-2.2929.7071zm-1.41422-1.4142c.92032-.92035 2.21962-1.2929 3.70712-1.2929h5.3333c1.4875 0 2.7868.37255 3.7071 1.2929.9204.92034 1.2929 2.2196 1.2929 3.7071v6.6667c0 1.4874-.3725 2.7867-1.2929 3.7071-.9203.9203-2.2196 1.2929-3.7071 1.2929h-5.3333c-1.4875 0-2.7868-.3726-3.70712-1.2929-.92035-.9204-1.2929-2.2197-1.2929-3.7071v-6.6667c0-1.4875.37255-2.78676 1.2929-3.7071z"/><path d="m5.66699 16c0-.5523.44772-1 1-1h18.66671c.5522 0 1 .4477 1 1s-.4478 1-1 1h-18.66671c-.55228 0-1-.4477-1-1z"/></g></svg>