<?xml version="1.0" ?><svg height="32" id="svg6485" version="1.1" viewBox="0 0 32 32" width="32" xmlns="http://www.w3.org/2000/svg" xmlns:cc="http://creativecommons.org/ns#" xmlns:dc="http://purl.org/dc/elements/1.1/" xmlns:inkscape="http://www.inkscape.org/namespaces/inkscape" xmlns:rdf="http://www.w3.org/1999/02/22-rdf-syntax-ns#" xmlns:sodipodi="http://sodipodi.sourceforge.net/DTD/sodipodi-0.dtd" xmlns:svg="http://www.w3.org/2000/svg" xmlns:xlink="http://www.w3.org/1999/xlink"><defs id="defs6487"><linearGradient id="linearGradient5438"><stop id="stop5440" offset="0" style="stop-color:#000092;stop-opacity:1"/><stop id="stop5442" offset="1" style="stop-color:#ff00f3;stop-opacity:1"/></linearGradient><linearGradient gradientUnits="userSpaceOnUse" id="linearGradient5444" x1="2" x2="30.000006" xlink:href="#linearGradient5438" y1="16.000977" y2="16.000977"/></defs><g id="layer1" transform="translate(0,-1020.3622)"><text id="text4366" style="font-style:normal;font-weight:normal;font-size:11.25px;line-height:125%;font-family:Sans;letter-spacing:0px;word-spacing:0px;fill:#000000;fill-opacity:1;stroke:none;stroke-width:1px;stroke-linecap:butt;stroke-linejoin:miter;stroke-opacity:1" x="12" xml:space="preserve" y="1036.3622"><tspan id="tspan4368" x="12" y="1036.3622"/></text><g id="text4981" style="font-style:normal;font-variant:normal;font-weight:normal;font-stretch:normal;font-size:12.37186241px;line-height:125%;font-family:'Roboto Condensed';-inkscape-font-specification:'Roboto Condensed, ';letter-spacing:0px;word-spacing:0px;fill:#000000;fill-opacity:1;stroke:none;stroke-width:1px;stroke-linecap:butt;stroke-linejoin:miter;stroke-opacity:1" transform="scale(1.1477838,0.87124422)"/><path d="M 16.351562 2.171875 C 14.012239 2.171875 12.10925 4.0448934 12.037109 6.3671875 C 11.414477 6.0365876 10.71605 5.8369723 9.9765625 5.8300781 A 0.50005 0.50005 0 0 0 9.9726562 5.8300781 C 9.5710962 5.8300781 9.1672007 5.878075 8.7714844 5.984375 A 0.50005 0.50005 0 0 0 8.7695312 5.984375 C 7.2024704 6.405775 5.9831863 7.6389375 5.5800781 9.2109375 A 0.50005 0.50005 0 0 0 6.1308594 9.8320312 C 7.058984 9.709057 7.9509586 9.9693782 8.6582031 10.490234 C 7.8385589 11.163052 7.1495965 11.95908 6.5800781 12.830078 L 5.1035156 12.830078 C 3.4031817 12.830078 2 14.165678 2 15.830078 L 2 17.830078 C 2 19.494478 3.4031817 20.830078 5.1035156 20.830078 L 6.0039062 20.830078 C 6.8283226 22.536978 8.2097176 23.990916 10 25.041016 L 10 29.330078 A 0.50004997 0.50004997 0 0 0 10.5 29.830078 L 13.5 29.830078 A 0.50004997 0.50004997 0 0 0 14 29.330078 L 14 26.517578 C 14.84255 26.682578 15.693931 26.826578 16.560547 26.830078 A 0.50004997 0.50004997 0 0 0 16.5625 26.830078 C 17.738718 26.830078 18.882942 26.592622 20 26.294922 L 20 29.330078 A 0.50004997 0.50004997 0 0 0 20.5 29.830078 L 23.5 29.830078 A 0.50004997 0.50004997 0 0 0 24 29.330078 L 24 24.509766 C 26.49969 22.723766 27.997468 20.115078 28 17.330078 C 27.999994 14.882304 26.889814 12.664899 25.082031 10.990234 C 25.073596 10.970359 24.97857 10.742239 25 10.292969 L 25 10.28125 L 25 10.271484 C 25.0076 9.9674844 25.138586 9.6475844 25.365234 9.3964844 C 25.460884 9.2904844 25.637039 9.2626875 25.765625 9.1796875 C 25.821785 9.5178875 25.890317 9.8546969 26.041016 10.154297 C 26.210112 10.490397 26.438283 10.82015 26.751953 11.09375 C 27.06789 11.36945 27.46507 11.581303 27.914062 11.658203 C 28.364196 11.736203 28.852864 11.676162 29.271484 11.414062 L 29.273438 11.414062 C 29.479019 11.287362 29.658236 11.118603 29.789062 10.908203 C 29.921587 10.694903 29.999231 10.446047 30 10.185547 C 30.0014 9.7102469 29.765202 9.3393937 29.535156 9.0585938 C 29.161372 8.6022937 28.66502 8.2336188 28.089844 8.0117188 C 27.748299 7.8799187 27.369527 7.9257031 27 7.9082031 C 27.12282 7.6888031 27.197874 7.4456031 27.40625 7.2832031 C 27.755512 7.0112031 28.225124 6.8408125 28.697266 6.8203125 A 0.50046139 0.50046139 0 0 0 28.654297 5.8203125 L 28.654297 5.8300781 C 27.976304 5.8600781 27.317388 6.0940062 26.791016 6.5039062 C 26.265043 6.9138063 25.89165 7.4857938 25.748047 8.1210938 C 25.342654 8.2799937 24.915414 8.4123281 24.623047 8.7363281 C 24.272765 9.1243344 24.058082 9.6138453 24.015625 10.130859 C 22.918142 9.346367 21.643841 8.7357262 20.251953 8.3417969 C 20.518914 7.7802755 20.681641 7.1611752 20.681641 6.5 C 20.681641 4.1152 18.736346 2.171875 16.351562 2.171875 z M 16.351562 3.171875 C 18.195906 3.171875 19.681641 4.6557 19.681641 6.5 C 19.681641 8.3444 18.195907 9.8300781 16.351562 9.8300781 C 14.507219 9.8300781 13.023437 8.3444 13.023438 6.5 C 13.023438 4.6557 14.50722 3.171875 16.351562 3.171875 z M 16.132812 3.6035156 L 16.132812 4.1152344 C 15.937805 4.1392344 15.761242 4.1868594 15.603516 4.2558594 C 15.445789 4.3255594 15.311065 4.4146375 15.199219 4.5234375 C 15.090245 4.6322375 15.005543 4.7620562 14.945312 4.9101562 C 14.887952 5.0581563 14.859375 5.2198375 14.859375 5.3984375 C 14.859375 5.5921375 14.893024 5.7641094 14.958984 5.9121094 C 15.027811 6.0602094 15.125772 6.1896344 15.251953 6.3027344 C 15.381002 6.4159344 15.534176 6.5165625 15.714844 6.6015625 C 15.89838 6.6842625 16.106517 6.7573125 16.335938 6.8203125 C 16.508002 6.8769125 16.652991 6.9350938 16.773438 6.9960938 C 16.896747 7.0570937 16.995742 7.1233125 17.070312 7.1953125 C 17.147745 7.2671125 17.203861 7.3447344 17.238281 7.4277344 C 17.272701 7.5104344 17.289062 7.5992656 17.289062 7.6972656 C 17.289062 7.8147656 17.267619 7.9215781 17.224609 8.0175781 C 17.181593 8.1111781 17.120269 8.1917656 17.037109 8.2597656 C 16.956812 8.3251656 16.85482 8.3770625 16.734375 8.4140625 C 16.616797 8.4490625 16.482068 8.4648438 16.330078 8.4648438 C 16.221103 8.4648438 16.112879 8.4518281 16.003906 8.4238281 C 15.894933 8.3955281 15.795931 8.3454375 15.707031 8.2734375 C 15.618128 8.2016375 15.546667 8.1043219 15.492188 7.9824219 C 15.437707 7.8605219 15.410156 7.7064844 15.410156 7.5214844 L 14.652344 7.5214844 C 14.652344 7.7673844 14.692101 7.97995 14.769531 8.15625 C 14.84696 8.33045 14.949076 8.4744438 15.078125 8.5898438 C 15.210042 8.7052437 15.362052 8.7925156 15.53125 8.8535156 C 15.700446 8.9143156 15.874019 8.9546094 16.054688 8.9746094 L 16.054688 9.3945312 L 16.654297 9.3945312 L 16.654297 8.9746094 C 16.869377 8.9529094 17.06231 8.90875 17.234375 8.84375 C 17.40644 8.77845 17.55143 8.6927844 17.671875 8.5839844 C 17.792317 8.4750844 17.887165 8.3452656 17.953125 8.1972656 C 18.019085 8.0469656 18.050781 7.8785063 18.050781 7.6914062 C 18.050781 7.4999062 18.020121 7.3314469 17.957031 7.1855469 C 17.89394 7.0396469 17.801047 6.9118813 17.677734 6.8007812 C 17.554422 6.6898812 17.401372 6.5927656 17.220703 6.5097656 C 17.040035 6.4248656 16.832811 6.34925 16.597656 6.28125 C 16.41412 6.22245 16.258993 6.1625625 16.132812 6.1015625 C 16.009498 6.0384625 15.909461 5.9713437 15.832031 5.9023438 C 15.754598 5.8327437 15.698483 5.7568281 15.664062 5.6738281 C 15.632523 5.5889281 15.617188 5.495125 15.617188 5.390625 C 15.617188 5.277425 15.632523 5.1740781 15.664062 5.0800781 C 15.698476 4.9863781 15.748493 4.9077969 15.814453 4.8417969 C 15.883278 4.7740969 15.967982 4.7225469 16.068359 4.6855469 C 16.16873 4.6485469 16.288129 4.6289062 16.425781 4.6289062 C 16.557697 4.6289062 16.674105 4.653125 16.777344 4.703125 C 16.880583 4.753125 16.968289 4.8231094 17.037109 4.9121094 C 17.105926 5.0014094 17.156986 5.1065156 17.191406 5.2285156 C 17.228686 5.3504156 17.246094 5.4849594 17.246094 5.6308594 L 18 5.6308594 C 18 5.1889594 17.888786 4.8406375 17.667969 4.5859375 C 17.450021 4.3294375 17.141718 4.1741406 16.740234 4.1191406 L 16.740234 3.6035156 L 16.132812 3.6035156 z M 9.96875 6.8300781 C 10.814037 6.8398899 11.595388 7.1497097 12.205078 7.6699219 C 12.416948 8.4164141 12.811291 9.0845545 13.355469 9.609375 C 13.370766 9.6822041 13.377878 9.7563357 13.388672 9.8300781 L 13 9.8300781 A 0.50005 0.50005 0 1 0 13 10.830078 L 20 10.830078 A 0.50005 0.50005 0 1 0 20 9.8300781 L 19.082031 9.8300781 C 19.304333 9.6473706 19.505284 9.4453754 19.6875 9.2226562 C 23.963311 10.315708 26.999991 13.557788 27 17.330078 C 26.9977 19.841478 25.633657 22.238188 23.220703 23.867188 A 0.50004997 0.50004997 0 0 0 23 24.28125 L 23 28.830078 L 21 28.830078 L 21 25.716797 A 0.50004997 0.50004997 0 0 0 20.347656 25.240234 C 19.14253 25.626334 17.858758 25.829878 16.564453 25.830078 C 15.566312 25.830078 14.574396 25.704403 13.619141 25.470703 A 0.50004997 0.50004997 0 0 0 13 25.957031 L 13 28.830078 L 11 28.830078 L 11 24.802734 A 0.50004997 0.50004997 0 0 0 10.740234 24.363281 C 8.8648514 23.334481 7.4614381 21.844559 6.7207031 20.130859 A 0.50004997 0.50004997 0 0 0 6.2617188 19.830078 L 5.1035156 19.830078 C 3.9184127 19.830078 3 18.935678 3 17.830078 L 3 15.830078 C 3 14.724478 3.9184127 13.830078 5.1035156 13.830078 L 6.7792969 13.830078 A 0.50004997 0.50004997 0 0 0 7.2070312 13.587891 C 7.7564188 12.676764 8.5006344 11.872391 9.3789062 11.189453 C 9.6187531 11.507159 9.810335 11.869637 9.9335938 12.269531 A 0.50073289 0.50073289 0 1 0 10.890625 11.974609 C 10.675024 11.275165 10.295149 10.675268 9.8085938 10.191406 A 0.50004997 0.50004997 0 0 0 9.6992188 10.095703 C 8.9406646 9.3901244 7.9466777 8.9525027 6.8769531 8.8808594 C 7.3125103 7.9684594 8.0309836 7.2177188 9.0292969 6.9492188 C 9.3315225 6.8682188 9.6477457 6.8303781 9.96875 6.8300781 z M 27.21875 8.8476562 C 27.394739 8.8604813 27.567016 8.8922781 27.730469 8.9550781 C 28.137698 9.1121781 28.496979 9.379925 28.761719 9.703125 C 28.918839 9.894825 29.000339 10.078459 29 10.193359 C 28.999823 10.253359 28.980273 10.322972 28.939453 10.388672 C 28.898183 10.454672 28.831634 10.523219 28.748047 10.574219 L 28.744141 10.574219 L 28.742188 10.574219 C 28.578457 10.677119 28.32327 10.719234 28.083984 10.677734 L 28.082031 10.677734 C 27.840459 10.636734 27.602104 10.515156 27.410156 10.347656 C 27.215945 10.178256 27.057635 9.9593906 26.933594 9.7128906 C 26.792676 9.4327058 26.707303 9.1397178 26.6875 8.8535156 C 26.863062 8.8410156 27.042761 8.8348312 27.21875 8.8476562 z M 10 13.828125 A 1 1.0000087 0 0 0 9 14.828125 A 1 1.0000087 0 0 0 10 15.828125 A 1 1.0000087 0 0 0 11 14.828125 A 1 1.0000087 0 0 0 10 13.828125 z " id="path4805-9" style="color:#000000;font-style:normal;font-variant:normal;font-weight:normal;font-stretch:normal;font-size:medium;line-height:normal;font-family:sans-serif;text-indent:0;text-align:start;text-decoration:none;text-decoration-line:none;text-decoration-style:solid;text-decoration-color:#000000;letter-spacing:normal;word-spacing:normal;text-transform:none;direction:ltr;block-progression:tb;writing-mode:lr-tb;baseline-shift:baseline;text-anchor:start;white-space:normal;clip-rule:nonzero;display:inline;overflow:visible;visibility:visible;opacity:1;isolation:auto;mix-blend-mode:normal;color-interpolation:sRGB;color-interpolation-filters:linearRGB;solid-color:#000000;solid-opacity:1;fill:url(#linearGradient5444);fill-opacity:1;fill-rule:nonzero;stroke:none;stroke-width:0.99999994;stroke-linecap:round;stroke-linejoin:round;stroke-miterlimit:4;stroke-dasharray:none;stroke-dashoffset:0;stroke-opacity:1;color-rendering:auto;image-rendering:auto;shape-rendering:auto;text-rendering:auto;enable-background:accumulate" transform="translate(0,1020.3622)"/></g></svg>