<svg width="375" height="229" viewBox="0 0 375 229" fill="none" xmlns="http://www.w3.org/2000/svg">
<g filter="url(#filter0_d_49_1675)">
<g filter="url(#filter1_d_49_1675)">
<rect x="25" y="50" width="325" height="129" rx="22" fill="white"/>
</g>
<path d="M126.98 150H128.66V146.486C129.08 146.542 129.5 146.584 129.92 146.584C131.978 146.584 133.784 145.534 133.784 143.336C133.784 141.012 132.062 140.06 129.99 140.06H126.98V150ZM128.66 141.544H129.962C131.124 141.544 132.048 142.048 132.048 143.322C132.048 144.652 131.04 145.1 129.85 145.1C129.458 145.1 129.052 145.058 128.66 145.002V141.544ZM135.085 142.678V150H136.695V146.29C136.695 145.142 137.227 144.176 138.487 144.176C138.711 144.176 138.935 144.19 139.145 144.274L139.327 142.706C139.089 142.608 138.823 142.58 138.571 142.58C137.675 142.58 136.989 143.07 136.625 143.882L136.555 142.678H135.085ZM139.972 146.332C139.972 148.544 141.498 150.21 143.696 150.21C145.04 150.21 146.342 149.594 146.902 148.334L145.488 147.788C145.054 148.474 144.466 148.81 143.696 148.81C142.464 148.81 141.75 147.858 141.638 146.724H147.056V146.248C147.056 144.106 145.74 142.468 143.57 142.468C141.4 142.468 139.972 144.288 139.972 146.332ZM143.57 143.77C144.648 143.77 145.222 144.61 145.376 145.576H141.68C141.876 144.596 142.52 143.77 143.57 143.77ZM148.429 142.678V150H150.039V145.744C150.039 144.708 150.753 143.924 151.789 143.924C152.909 143.924 153.301 144.834 153.301 145.828V150H154.911V145.646C154.911 143.924 154.015 142.468 152.195 142.468C151.285 142.468 150.403 142.874 149.955 143.686L149.899 142.678H148.429ZM159.739 150.21C160.775 150.21 161.685 149.706 162.217 148.824L162.287 150H163.757V139.584H162.147V143.644C161.601 142.874 160.761 142.468 159.823 142.468C157.667 142.468 156.323 144.372 156.323 146.374C156.323 148.362 157.667 150.21 159.739 150.21ZM157.975 146.346C157.975 145.086 158.745 143.924 160.075 143.924C161.447 143.924 162.175 145.1 162.175 146.346C162.175 147.592 161.391 148.754 160.075 148.754C158.745 148.754 157.975 147.564 157.975 146.346ZM165.491 142.678V150H167.101V146.29C167.101 145.142 167.633 144.176 168.893 144.176C169.117 144.176 169.341 144.19 169.551 144.274L169.733 142.706C169.495 142.608 169.229 142.58 168.977 142.58C168.081 142.58 167.395 143.07 167.031 143.882L166.961 142.678H165.491ZM170.378 146.332C170.378 148.544 171.904 150.21 174.102 150.21C175.446 150.21 176.748 149.594 177.308 148.334L175.894 147.788C175.46 148.474 174.872 148.81 174.102 148.81C172.87 148.81 172.156 147.858 172.044 146.724H177.462V146.248C177.462 144.106 176.146 142.468 173.976 142.468C171.806 142.468 170.378 144.288 170.378 146.332ZM173.976 143.77C175.054 143.77 175.628 144.61 175.782 145.576H172.086C172.282 144.596 172.926 143.77 173.976 143.77ZM181.815 146.766C181.815 148.782 183.005 150.21 185.035 150.21C187.135 150.21 188.283 148.726 188.283 146.766V142.678H186.673V146.794C186.673 147.816 186.197 148.754 185.049 148.754C183.901 148.754 183.425 147.816 183.425 146.794V142.678H181.815V146.766ZM190.018 142.678V150H191.628V145.744C191.628 144.708 192.342 143.924 193.378 143.924C194.498 143.924 194.89 144.834 194.89 145.828V150H196.5V145.646C196.5 143.924 195.604 142.468 193.784 142.468C192.874 142.468 191.992 142.874 191.544 143.686L191.488 142.678H190.018ZM197.913 146.332C197.913 148.544 199.439 150.21 201.637 150.21C202.981 150.21 204.283 149.594 204.843 148.334L203.429 147.788C202.995 148.474 202.407 148.81 201.637 148.81C200.405 148.81 199.691 147.858 199.579 146.724H204.997V146.248C204.997 144.106 203.681 142.468 201.511 142.468C199.341 142.468 197.913 144.288 197.913 146.332ZM201.511 143.77C202.589 143.77 203.163 144.61 203.317 145.576H199.621C199.817 144.596 200.461 143.77 201.511 143.77ZM209.35 142.678V152.772H210.96V149.034C211.506 149.804 212.346 150.21 213.284 150.21C215.454 150.21 216.784 148.306 216.784 146.304C216.784 144.302 215.454 142.468 213.368 142.468C212.318 142.468 211.436 142.958 210.89 143.854L210.82 142.678H209.35ZM213.032 143.924C214.39 143.924 215.132 145.086 215.132 146.332C215.132 147.578 214.362 148.754 213.032 148.754C211.702 148.754 210.932 147.55 210.932 146.332C210.932 145.072 211.702 143.924 213.032 143.924ZM218.196 150H219.806V145.744C219.806 144.708 220.52 143.924 221.556 143.924C222.676 143.924 223.068 144.834 223.068 145.828V150H224.678V145.646C224.678 143.924 223.782 142.468 221.962 142.468C221.094 142.468 220.296 142.832 219.806 143.56V139.584H218.196V150ZM226.091 146.332C226.091 148.516 227.645 150.21 229.815 150.21C232.069 150.21 233.595 148.502 233.595 146.332C233.595 144.134 232.055 142.468 229.871 142.468C227.617 142.468 226.091 144.162 226.091 146.332ZM229.843 143.924C231.201 143.924 231.943 145.086 231.943 146.332C231.943 147.578 231.173 148.754 229.843 148.754C228.513 148.754 227.743 147.55 227.743 146.332C227.743 145.072 228.513 143.924 229.843 143.924ZM234.191 142.678V143.98H235.479V147.746C235.479 149.258 236.305 150.21 237.845 150.21C238.167 150.21 238.475 150.168 238.769 150.084C239.049 149.986 239.301 149.874 239.511 149.72L239.147 148.502C238.979 148.6 238.797 148.67 238.601 148.712C238.405 148.768 238.223 148.796 238.055 148.796C237.341 148.796 237.089 148.208 237.089 147.578V143.98H239.217V142.678H237.089V140.2H235.479V142.678H234.191ZM240.323 146.332C240.323 148.516 241.877 150.21 244.047 150.21C246.301 150.21 247.827 148.502 247.827 146.332C247.827 144.134 246.287 142.468 244.103 142.468C241.849 142.468 240.323 144.162 240.323 146.332ZM244.075 143.924C245.433 143.924 246.175 145.086 246.175 146.332C246.175 147.578 245.405 148.754 244.075 148.754C242.745 148.754 241.975 147.55 241.975 146.332C241.975 145.072 242.745 143.924 244.075 143.924Z" fill="black"/>
<g clip-path="url(#clip0_49_1675)">
<path d="M170.395 93.6296C169.589 93.6296 168.936 92.976 168.936 92.1699V89.2507C168.936 88.4445 169.589 87.791 170.395 87.791C171.201 87.791 171.855 88.4445 171.855 89.2507V92.1699C171.855 92.976 171.201 93.6296 170.395 93.6296Z" fill="#66334D"/>
<path d="M198.128 89.251V92.1703C198.128 92.976 197.474 93.6299 196.669 93.6299H179.153C178.347 93.6299 177.693 92.976 177.693 92.1703V89.251C177.693 86.8367 179.658 84.8721 182.072 84.8721H193.749C196.164 84.8721 198.128 86.8367 198.128 89.251Z" fill="#66334D"/>
<path d="M198.129 89.251V92.1703C198.129 92.976 197.475 93.6299 196.669 93.6299H187.911V84.8721H193.75C196.164 84.8721 198.129 86.8367 198.129 89.251Z" fill="#66334D"/>
<path d="M198.129 89.251V92.1703C198.129 92.976 197.475 93.6299 196.669 93.6299H187.911V84.8721H193.75C196.164 84.8721 198.129 86.8367 198.129 89.251Z" fill="#4D2739"/>
<path d="M212.822 95.0889V106.766L187.911 109.101L163 106.766V95.0889C163 92.6746 164.965 90.71 167.379 90.71H208.443C210.858 90.71 212.822 92.6746 212.822 95.0889Z" fill="#8C466A"/>
<path d="M212.822 95.0889V106.766L187.911 109.101V90.71H208.443C210.858 90.71 212.822 92.6746 212.822 95.0889Z" fill="#66334D"/>
<path d="M212.822 106.767V118.444C212.822 120.858 210.858 122.823 208.443 122.823H167.379C164.965 122.823 163 120.858 163 118.444V106.767H212.822Z" fill="#FF8FB8"/>
<path d="M212.822 106.767V118.444C212.822 120.858 210.858 122.823 208.443 122.823H187.911V106.767H212.822Z" fill="#FF5F96"/>
<path d="M187.911 96.5488C182.277 96.5488 177.693 101.132 177.693 106.766C177.693 112.39 182.268 116.984 187.911 116.984C193.557 116.984 198.128 112.388 198.128 106.766C198.128 101.132 193.545 96.5488 187.911 96.5488Z" fill="#FFF2FB"/>
<path d="M198.129 106.766C198.129 112.388 193.557 116.984 187.911 116.984V96.5488C193.545 96.5488 198.129 101.132 198.129 106.766Z" fill="#FFDFEA"/>
<path d="M187.911 102.388C185.497 102.388 183.532 104.352 183.532 106.767C183.532 109.175 185.491 111.146 187.911 111.146C190.329 111.146 192.29 109.177 192.29 106.767C192.29 104.352 190.325 102.388 187.911 102.388Z" fill="#FFDFEA"/>
<path d="M192.29 106.767C192.29 109.177 190.329 111.146 187.911 111.146V102.388C190.325 102.388 192.29 104.352 192.29 106.767Z" fill="#FFBFBF"/>
<path d="M170.395 99.4681C171.201 99.4681 171.855 98.8146 171.855 98.0085C171.855 97.2023 171.201 96.5488 170.395 96.5488C169.589 96.5488 168.936 97.2023 168.936 98.0085C168.936 98.8146 169.589 99.4681 170.395 99.4681Z" fill="#97DE3D"/>
<path d="M205.427 99.4681H202.507C201.701 99.4681 201.048 98.8146 201.048 98.0085C201.048 97.2024 201.701 96.5488 202.507 96.5488H205.427C206.233 96.5488 206.886 97.2024 206.886 98.0085C206.886 98.8146 206.233 99.4681 205.427 99.4681Z" fill="#59C36A"/>
<path d="M189.37 74.4596V77.3789C189.37 78.1846 188.717 78.8386 187.911 78.8386C187.105 78.8386 186.451 78.1846 186.451 77.3789V74.4596C186.451 73.6539 187.105 73 187.911 73C188.717 73 189.37 73.6539 189.37 74.4596Z" fill="#FFE580"/>
<path d="M189.371 74.4596V77.3789C189.371 78.1846 188.717 78.8386 187.911 78.8386V73C188.717 73 189.371 73.6539 189.371 74.4596Z" fill="#FFCC66"/>
<path d="M191.685 80.9027C191.115 80.3326 191.115 79.4085 191.685 78.8384L193.75 76.7742C194.32 76.2042 195.244 76.2042 195.814 76.7742C196.384 77.3442 196.384 78.2684 195.814 78.8384L193.75 80.9027C193.18 81.4727 192.255 81.4727 191.685 80.9027Z" fill="#FFCC66"/>
<path d="M182.073 80.9026L180.009 78.8384C179.439 78.2684 179.439 77.3442 180.009 76.7742C180.578 76.2042 181.503 76.2042 182.073 76.7742L184.137 78.8384C184.707 79.4085 184.707 80.3326 184.137 80.9026C183.567 81.4726 182.643 81.4728 182.073 80.9026Z" fill="#FFE580"/>
</g>
</g>
<defs>
<filter id="filter0_d_49_1675" x="22" y="48" width="331" height="135" filterUnits="userSpaceOnUse" color-interpolation-filters="sRGB">
<feFlood flood-opacity="0" result="BackgroundImageFix"/>
<feColorMatrix in="SourceAlpha" type="matrix" values="0 0 0 0 0 0 0 0 0 0 0 0 0 0 0 0 0 0 127 0" result="hardAlpha"/>
<feOffset dy="1"/>
<feGaussianBlur stdDeviation="1.5"/>
<feComposite in2="hardAlpha" operator="out"/>
<feColorMatrix type="matrix" values="0 0 0 0 0 0 0 0 0 0 0 0 0 0 0 0 0 0 0.18 0"/>
<feBlend mode="normal" in2="BackgroundImageFix" result="effect1_dropShadow_49_1675"/>
<feBlend mode="normal" in="SourceGraphic" in2="effect1_dropShadow_49_1675" result="shape"/>
</filter>
<filter id="filter1_d_49_1675" x="-25" y="0" width="425" height="229" filterUnits="userSpaceOnUse" color-interpolation-filters="sRGB">
<feFlood flood-opacity="0" result="BackgroundImageFix"/>
<feColorMatrix in="SourceAlpha" type="matrix" values="0 0 0 0 0 0 0 0 0 0 0 0 0 0 0 0 0 0 127 0" result="hardAlpha"/>
<feOffset/>
<feGaussianBlur stdDeviation="25"/>
<feColorMatrix type="matrix" values="0 0 0 0 0.352941 0 0 0 0 0.423529 0 0 0 0 0.917647 0 0 0 0.07 0"/>
<feBlend mode="normal" in2="BackgroundImageFix" result="effect1_dropShadow_49_1675"/>
<feBlend mode="normal" in="SourceGraphic" in2="effect1_dropShadow_49_1675" result="shape"/>
</filter>
<clipPath id="clip0_49_1675">
<rect width="49.8223" height="49.8223" fill="white" transform="translate(163 73)"/>
</clipPath>
</defs>
</svg>
