<svg width="156" height="52" viewBox="0 0 156 52" fill="none" xmlns="http://www.w3.org/2000/svg">
<rect x="1" y="1" width="154" height="50" rx="10" stroke="url(#paint0_linear_38_1164)" stroke-width="1.5" stroke-linecap="round" stroke-linejoin="round"/>
<path d="M52.248 20.64V32H58.952V30.784H53.592V26.704H58.344V25.488H53.592V21.84H58.792V20.64H52.248ZM64.3104 32.24C65.6384 32.24 66.7104 31.6 67.3504 30.432L67.4144 32H68.5664V20.128H67.2864V25.152C66.6624 24.08 65.6064 23.504 64.3744 23.504C61.9424 23.504 60.4384 25.632 60.4384 27.888C60.4384 30.144 61.9584 32.24 64.3104 32.24ZM61.7504 27.872C61.7504 26.208 62.7744 24.672 64.5344 24.672C65.3344 24.672 65.9904 24.992 66.5344 25.568C67.0944 26.224 67.3184 27.024 67.3184 27.872C67.3184 29.552 66.2944 31.072 64.5344 31.072C63.7664 31.072 63.0464 30.752 62.5504 30.16C61.9744 29.552 61.7504 28.688 61.7504 27.872ZM72.0875 32V23.744H70.8075V32H72.0875ZM71.4475 22.208C71.9275 22.208 72.3275 21.808 72.3275 21.328C72.3275 20.816 71.9435 20.448 71.4475 20.448C70.9675 20.448 70.5675 20.848 70.5675 21.328C70.5675 21.792 70.9835 22.208 71.4475 22.208ZM73.4591 23.744V24.832H74.9791V29.6C74.9791 31.184 75.8111 32.24 77.4111 32.24C78.0671 32.24 78.6591 32.08 79.2031 31.696L78.8191 30.704C78.4511 30.944 77.9551 31.088 77.5231 31.088C76.5951 31.088 76.2591 30.368 76.2591 29.536V24.832H78.8511V23.744H76.2591V20.976H74.9791V23.744H73.4591ZM80.2821 27.888C80.2821 30.368 81.9621 32.24 84.4421 32.24C85.8661 32.24 87.1941 31.584 87.8661 30.304L86.7781 29.808C86.2341 30.672 85.4181 31.104 84.4101 31.104C82.6341 31.104 81.7381 29.728 81.6101 28.128H88.0261V27.6C88.0261 25.328 86.5221 23.52 84.2341 23.52C81.7861 23.52 80.2821 25.6 80.2821 27.888ZM84.2341 24.608C85.7061 24.608 86.5541 25.792 86.6821 27.136H81.6741C81.8981 25.792 82.7941 24.608 84.2341 24.608ZM89.8544 23.744V32H91.1344V27.616C91.1344 26.208 91.8384 24.88 93.3744 24.88C93.6304 24.88 93.8864 24.896 94.1264 24.992L94.2864 23.776C94.1744 23.728 94.0624 23.696 93.9184 23.664C93.7744 23.648 93.5984 23.632 93.4224 23.632C92.3024 23.632 91.5024 24.256 91.0864 25.28L91.0064 23.744H89.8544ZM99.4824 32H100.826V27.648C101.354 27.728 101.898 27.776 102.442 27.776C104.73 27.776 106.778 26.704 106.778 24.224C106.778 21.696 104.874 20.64 102.618 20.64H99.4824V32ZM100.826 21.84H102.602C104.138 21.84 105.402 22.576 105.402 24.208C105.402 25.968 103.962 26.576 102.41 26.576C101.882 26.576 101.338 26.544 100.826 26.448V21.84ZM108.495 23.744V32H109.775V27.616C109.775 26.208 110.479 24.88 112.015 24.88C112.271 24.88 112.527 24.896 112.767 24.992L112.927 23.776C112.815 23.728 112.703 23.696 112.559 23.664C112.415 23.648 112.239 23.632 112.063 23.632C110.943 23.632 110.143 24.256 109.727 25.28L109.647 23.744H108.495ZM117.862 32.24C120.358 32.24 121.974 30.24 121.974 27.872C121.974 25.44 120.342 23.504 117.894 23.504C115.414 23.504 113.782 25.52 113.782 27.872C113.782 30.272 115.43 32.24 117.862 32.24ZM115.094 27.872C115.094 26.208 116.118 24.672 117.878 24.672C118.678 24.672 119.334 24.992 119.878 25.568C120.438 26.224 120.662 27.024 120.662 27.872C120.662 29.552 119.638 31.072 117.878 31.072C117.11 31.072 116.39 30.752 115.894 30.16C115.318 29.552 115.094 28.688 115.094 27.872ZM122.74 24.832H124.26V32H125.54V24.832H129.572V32H130.852V23.744H125.54V23.008C125.54 22.08 125.828 21.088 126.932 21.088C127.236 21.088 127.572 21.168 127.844 21.328L128.212 20.336C127.812 20.096 127.364 19.968 126.852 19.968C125.108 19.968 124.26 21.408 124.26 22.976V23.744H122.74V24.832ZM129.332 21.328C129.332 21.792 129.748 22.208 130.212 22.208C130.692 22.208 131.092 21.808 131.092 21.328C131.092 20.816 130.708 20.448 130.212 20.448C129.732 20.448 129.332 20.848 129.332 21.328ZM133.089 32H134.369V20.128H133.089V32ZM136.188 27.888C136.188 30.368 137.868 32.24 140.348 32.24C141.772 32.24 143.1 31.584 143.772 30.304L142.684 29.808C142.14 30.672 141.324 31.104 140.316 31.104C138.54 31.104 137.644 29.728 137.516 28.128H143.932V27.6C143.932 25.328 142.428 23.52 140.14 23.52C137.692 23.52 136.188 25.6 136.188 27.888ZM140.14 24.608C141.612 24.608 142.46 25.792 142.588 27.136H137.58C137.804 25.792 138.7 24.608 140.14 24.608Z" fill="url(#paint1_linear_38_1164)"/>
<g clip-path="url(#clip0_38_1164)">
<path d="M30.083 18.667H23.6663C23.1801 18.667 22.7138 18.8601 22.37 19.204C22.0262 19.5478 21.833 20.0141 21.833 20.5003V33.3337C21.833 33.8199 22.0262 34.2862 22.37 34.63C22.7138 34.9738 23.1801 35.167 23.6663 35.167H36.4997C36.9859 35.167 37.4522 34.9738 37.796 34.63C38.1399 34.2862 38.333 33.8199 38.333 33.3337V26.917" stroke="url(#paint2_linear_38_1164)" stroke-width="2" stroke-linecap="round" stroke-linejoin="round"/>
<path d="M36.958 17.2912C37.3227 16.9266 37.8173 16.7217 38.333 16.7217C38.8487 16.7217 39.3433 16.9266 39.708 17.2912C40.0727 17.6559 40.2776 18.1505 40.2776 18.6662C40.2776 19.1819 40.0727 19.6766 39.708 20.0412L30.9997 28.7496L27.333 29.6662L28.2497 25.9996L36.958 17.2912Z" stroke="url(#paint3_linear_38_1164)" stroke-width="2" stroke-linecap="round" stroke-linejoin="round"/>
</g>
<defs>
<linearGradient id="paint0_linear_38_1164" x1="-29.1181" y1="26" x2="158.978" y2="26" gradientUnits="userSpaceOnUse">
<stop stop-color="#8301BC"/>
<stop offset="1" stop-color="#D2286A"/>
</linearGradient>
<linearGradient id="paint1_linear_38_1164" x1="32.6162" y1="26.5" x2="147.428" y2="26.5" gradientUnits="userSpaceOnUse">
<stop stop-color="#8301BC"/>
<stop offset="1" stop-color="#D2286A"/>
</linearGradient>
<linearGradient id="paint2_linear_38_1164" x1="18.6061" y1="26.917" x2="38.7592" y2="26.917" gradientUnits="userSpaceOnUse">
<stop stop-color="#8301BC"/>
<stop offset="1" stop-color="#D2286A"/>
</linearGradient>
<linearGradient id="paint3_linear_38_1164" x1="24.8014" y1="23.1939" x2="40.6119" y2="23.1939" gradientUnits="userSpaceOnUse">
<stop stop-color="#8301BC"/>
<stop offset="1" stop-color="#D2286A"/>
</linearGradient>
<clipPath id="clip0_38_1164">
<rect width="22" height="22" fill="white" transform="translate(20 15)"/>
</clipPath>
</defs>
</svg>
