<svg width="375" height="229" viewBox="0 0 375 229" fill="none" xmlns="http://www.w3.org/2000/svg">
<g filter="url(#filter0_d_49_1665)">
<g filter="url(#filter1_d_49_1665)">
<rect x="25" y="50" width="325" height="129" rx="22" fill="white"/>
</g>
<path d="M148.98 140.06V150H152.606C155.672 150 157.87 148.068 157.87 145.016C157.87 141.838 155.574 140.06 152.606 140.06H148.98ZM150.688 148.474V141.586H152.522C154.706 141.586 156.106 142.874 156.106 145.03C156.106 147.242 154.622 148.474 152.522 148.474H150.688ZM159.06 146.332C159.06 148.544 160.586 150.21 162.784 150.21C164.128 150.21 165.43 149.594 165.99 148.334L164.576 147.788C164.142 148.474 163.554 148.81 162.784 148.81C161.552 148.81 160.838 147.858 160.726 146.724H166.144V146.248C166.144 144.106 164.828 142.468 162.658 142.468C160.488 142.468 159.06 144.288 159.06 146.332ZM162.658 143.77C163.736 143.77 164.31 144.61 164.464 145.576H160.768C160.964 144.596 161.608 143.77 162.658 143.77ZM170.497 150H172.107V139.584H170.497V150ZM173.497 147.914C173.497 149.37 174.743 150.21 176.087 150.21C176.983 150.21 177.879 149.846 178.341 149.034L178.397 150H179.867V145.534C179.867 143.686 178.579 142.468 176.787 142.468C175.485 142.468 174.127 143.168 173.763 144.484L175.247 144.82C175.499 144.19 176.087 143.812 176.759 143.812C177.753 143.812 178.271 144.54 178.271 145.464V145.926C177.697 145.688 177.095 145.576 176.479 145.576C175.009 145.576 173.497 146.276 173.497 147.914ZM175.121 147.844C175.121 146.99 176.031 146.71 176.731 146.71C176.997 146.71 177.263 146.738 177.529 146.794C177.781 146.864 178.033 146.948 178.271 147.046V147.214C178.271 148.236 177.445 148.922 176.465 148.922C175.807 148.922 175.121 148.572 175.121 147.844ZM184.257 146.192C184.257 148.152 185.615 149.86 187.631 149.86C188.583 149.86 189.451 149.44 190.011 148.656V149.356C190.011 150.644 189.269 151.568 187.967 151.568C187.169 151.568 186.581 151.218 186.161 150.546L184.635 151.078C185.307 152.338 186.497 152.982 187.911 152.982C190.207 152.982 191.621 151.428 191.621 149.23V142.678H190.151L190.095 143.714C189.563 142.888 188.695 142.468 187.715 142.468C185.629 142.468 184.257 144.232 184.257 146.192ZM187.967 143.924C189.241 143.924 190.039 144.96 190.039 146.164C190.039 147.382 189.213 148.404 187.967 148.404C186.721 148.404 185.909 147.34 185.909 146.164C185.909 144.96 186.735 143.924 187.967 143.924ZM193.006 147.914C193.006 149.37 194.252 150.21 195.596 150.21C196.492 150.21 197.388 149.846 197.85 149.034L197.906 150H199.376V145.534C199.376 143.686 198.088 142.468 196.296 142.468C194.994 142.468 193.636 143.168 193.272 144.484L194.756 144.82C195.008 144.19 195.596 143.812 196.268 143.812C197.262 143.812 197.78 144.54 197.78 145.464V145.926C197.206 145.688 196.604 145.576 195.988 145.576C194.518 145.576 193.006 146.276 193.006 147.914ZM194.63 147.844C194.63 146.99 195.54 146.71 196.24 146.71C196.506 146.71 196.772 146.738 197.038 146.794C197.29 146.864 197.542 146.948 197.78 147.046V147.214C197.78 148.236 196.954 148.922 195.974 148.922C195.316 148.922 194.63 148.572 194.63 147.844ZM201.108 150H202.718V139.584H201.108V150ZM204.458 150H206.068V139.584H204.458V150ZM207.485 146.332C207.485 148.544 209.011 150.21 211.209 150.21C212.553 150.21 213.855 149.594 214.415 148.334L213.001 147.788C212.567 148.474 211.979 148.81 211.209 148.81C209.977 148.81 209.263 147.858 209.151 146.724H214.569V146.248C214.569 144.106 213.253 142.468 211.083 142.468C208.913 142.468 207.485 144.288 207.485 146.332ZM211.083 143.77C212.161 143.77 212.735 144.61 212.889 145.576H209.193C209.389 144.596 210.033 143.77 211.083 143.77ZM215.942 142.678V150H217.552V146.29C217.552 145.142 218.084 144.176 219.344 144.176C219.568 144.176 219.792 144.19 220.002 144.274L220.184 142.706C219.946 142.608 219.68 142.58 219.428 142.58C218.532 142.58 217.846 143.07 217.482 143.882L217.412 142.678H215.942ZM222.98 150V142.678H221.37V150H222.98ZM221.328 141.124C221.412 141.278 221.524 141.39 221.678 141.474C221.832 141.572 221.986 141.614 222.168 141.614C222.35 141.614 222.504 141.572 222.658 141.474C222.812 141.39 222.924 141.278 223.022 141.124C223.106 140.97 223.148 140.816 223.148 140.634C223.148 140.452 223.106 140.298 223.022 140.144C222.924 139.99 222.812 139.878 222.658 139.78C222.504 139.696 222.35 139.654 222.168 139.654C221.986 139.654 221.832 139.696 221.678 139.78C221.524 139.878 221.412 139.99 221.328 140.144C221.23 140.298 221.188 140.452 221.188 140.634C221.188 140.816 221.23 140.97 221.328 141.124ZM224.398 146.332C224.398 148.544 225.924 150.21 228.122 150.21C229.466 150.21 230.768 149.594 231.328 148.334L229.914 147.788C229.48 148.474 228.892 148.81 228.122 148.81C226.89 148.81 226.176 147.858 226.064 146.724H231.482V146.248C231.482 144.106 230.166 142.468 227.996 142.468C225.826 142.468 224.398 144.288 224.398 146.332ZM227.996 143.77C229.074 143.77 229.648 144.61 229.802 145.576H226.106C226.302 144.596 226.946 143.77 227.996 143.77Z" fill="black"/>
<g clip-path="url(#clip0_49_1665)">
<path d="M185.397 117.788C180.516 117.788 176.544 113.815 176.544 108.934V79.2891L166.48 81.5929C163.993 82.2471 162.501 84.8115 163.159 87.3218L171.788 119.538C172.361 121.621 174.275 123 176.329 123C176.715 123 177.106 122.952 177.494 122.85L198.492 117.788H185.397Z" fill="#B0BEC5"/>
<path d="M213 78.7288V108.935C213 112.101 210.437 114.663 207.271 114.663H185.398C183.252 114.663 181.377 113.476 180.398 111.726C179.94 110.913 179.669 109.955 179.669 108.935V78.7288C179.669 75.5621 182.231 73 185.398 73H207.271C210.437 73 213 75.5621 213 78.7288Z" fill="#ECEFF1"/>
<path d="M194.251 87.5821C194.251 89.8833 192.386 91.7485 190.084 91.7485C187.784 91.7485 185.918 89.8833 185.918 87.5821C185.918 85.2812 187.784 83.416 190.084 83.416C192.386 83.416 194.251 85.2812 194.251 87.5821Z" fill="#FFC107"/>
<path d="M212.999 97.8729V108.935C212.999 112.101 210.436 114.663 207.27 114.663H185.397C183.251 114.663 181.377 113.476 180.397 111.726L201.042 91.0817C202.458 89.6655 204.791 89.6655 206.208 91.0817L212.999 97.8729Z" fill="#388E3C"/>
<path d="M206.875 114.663H185.398C183.252 114.663 181.377 113.476 180.398 111.726C179.94 110.914 179.669 109.955 179.669 108.935V104.122L185.419 98.373C186.835 96.9564 189.168 96.9564 190.585 98.373L206.875 114.663Z" fill="#4CAF50"/>
</g>
</g>
<defs>
<filter id="filter0_d_49_1665" x="22" y="48" width="331" height="135" filterUnits="userSpaceOnUse" color-interpolation-filters="sRGB">
<feFlood flood-opacity="0" result="BackgroundImageFix"/>
<feColorMatrix in="SourceAlpha" type="matrix" values="0 0 0 0 0 0 0 0 0 0 0 0 0 0 0 0 0 0 127 0" result="hardAlpha"/>
<feOffset dy="1"/>
<feGaussianBlur stdDeviation="1.5"/>
<feComposite in2="hardAlpha" operator="out"/>
<feColorMatrix type="matrix" values="0 0 0 0 0 0 0 0 0 0 0 0 0 0 0 0 0 0 0.18 0"/>
<feBlend mode="normal" in2="BackgroundImageFix" result="effect1_dropShadow_49_1665"/>
<feBlend mode="normal" in="SourceGraphic" in2="effect1_dropShadow_49_1665" result="shape"/>
</filter>
<filter id="filter1_d_49_1665" x="-25" y="0" width="425" height="229" filterUnits="userSpaceOnUse" color-interpolation-filters="sRGB">
<feFlood flood-opacity="0" result="BackgroundImageFix"/>
<feColorMatrix in="SourceAlpha" type="matrix" values="0 0 0 0 0 0 0 0 0 0 0 0 0 0 0 0 0 0 127 0" result="hardAlpha"/>
<feOffset/>
<feGaussianBlur stdDeviation="25"/>
<feColorMatrix type="matrix" values="0 0 0 0 0.352941 0 0 0 0 0.423529 0 0 0 0 0.917647 0 0 0 0.07 0"/>
<feBlend mode="normal" in2="BackgroundImageFix" result="effect1_dropShadow_49_1665"/>
<feBlend mode="normal" in="SourceGraphic" in2="effect1_dropShadow_49_1665" result="shape"/>
</filter>
<clipPath id="clip0_49_1665">
<rect width="50" height="50" fill="white" transform="translate(163 73)"/>
</clipPath>
</defs>
</svg>
