<svg fill="none" height="48" width="48" xmlns="http://www.w3.org/2000/svg" xmlns:xlink="http://www.w3.org/1999/xlink"><linearGradient id="a"><stop offset="0" stop-color="#8301bc"/><stop offset="1" stop-color="#d2286a"/></linearGradient><linearGradient id="b" gradientUnits="userSpaceOnUse" x1="-9.387" x2="49.24" xlink:href="#a" y1="24" y2="24"/><linearGradient id="c" gradientUnits="userSpaceOnUse" x1="8.35" x2="35.831" xlink:href="#a" y1="17.005" y2="17.005"/><linearGradient id="d" gradientUnits="userSpaceOnUse" x1="27.473" x2="29.672" xlink:href="#a" y1="14.367" y2="14.367"/><linearGradient id="e" gradientUnits="userSpaceOnUse" x1="18.023" x2="20.221" xlink:href="#a" y1="14.376" y2="14.376"/><linearGradient id="f" gradientUnits="userSpaceOnUse" x1="8.35" x2="35.831" xlink:href="#a" y1="28.472" y2="28.472"/><rect fill="url(#b)" height="48" opacity=".1" rx="12" width="48"/><path clip-rule="evenodd" d="m20.184 15.352h7.678v-1.788h-7.678zm-1.747-1.714v.008c-.6.055-1.192.174-1.77.353v-.007a.758.758 0 0 1 -.048.019.459.459 0 0 0 -.058.023.648.648 0 0 0 -.134.049 4.82 4.82 0 0 0 -.372.14c-.032.012-.064.026-.095.04-.032.015-.064.029-.095.041-.044.02-.089.043-.134.066-.046.022-.09.045-.134.065l-.215.124c-.04.02-.076.044-.114.068l-.068.043a5.121 5.121 0 0 0 -.892.729l-.016.016-.106.122c-.059.066-.116.132-.17.199l-.017.015a6.623 6.623 0 0 0 -1.24 4.214v.48h1.731v-.484c0-2.107.671-3.419 2.165-4.09a5.928 5.928 0 0 1 1.786-.446h.016v-1.78zm15.56 2.091.008.016a6.628 6.628 0 0 1 1.236 4.216v.484h-1.73v-.496a5.515 5.515 0 0 0 -.523-2.582 3.292 3.292 0 0 0 -1.652-1.509 5.72 5.72 0 0 0 -1.76-.445v-1.77a8.69 8.69 0 0 1 1.77.352v-.01c.032.016.057.024.1.04l.007.002.056.02c.026.01.05.02.078.029.119.039.23.085.344.132l.02.008a1.661 1.661 0 0 1 .188.081 3.942 3.942 0 0 1 .417.214l.073.041c.039.021.072.044.104.066l.07.045c.324.21.626.454.9.729l.01.017c.1.1.195.208.285.32z" fill="url(#c)" fill-rule="evenodd" opacity=".4"/><path d="m29.625 12.396v3.94a.899.899 0 0 1 -1.8 0v-3.93a.9.9 0 0 1 1.8-.013z" fill="url(#d)"/><path d="m20.175 12.41v3.93a.9.9 0 1 1 -1.8 0v-3.93a.9.9 0 1 1 1.8 0z" fill="url(#e)"/><path clip-rule="evenodd" d="m12.75 30.138v-9.693h22.5v9.693c0 4.226-2.36 6.362-7.039 6.362h-8.433c-4.667 0-7.028-2.136-7.028-6.362zm5.075-4.305c0 .587.462 1.063 1.03 1.063.58 0 1.04-.487 1.03-1.074 0-.586-.461-1.062-1.02-1.062h-.01c-.569 0-1.03.487-1.03 1.073zm5.14 0c0 .587.472 1.063 1.04 1.063.569 0 1.03-.476 1.03-1.074 0-.575-.461-1.05-1.03-1.062h-.01a1.064 1.064 0 0 0 -1.03 1.073zm6.18 1.063c-.569 0-1.03-.476-1.03-1.063 0-.586.45-1.062 1.03-1.062.569 0 1.03.476 1.03 1.062 0 .587-.462 1.063-1.03 1.063zm0 4.536c-.569 0-1.03-.476-1.04-1.062 0-.586.46-1.062 1.03-1.062h.01c.569 0 1.03.476 1.03 1.062s-.462 1.062-1.03 1.062zm-5.14 0c-.568 0-1.04-.476-1.04-1.062s.461-1.062 1.03-1.073h.01c.569.01 1.02.487 1.03 1.062 0 .597-.461 1.073-1.03 1.073zm-5.15 0c-.569 0-1.03-.476-1.03-1.062a1.043 1.043 0 0 1 1.03-1.073c.569 0 1.03.476 1.03 1.062s-.461 1.073-1.03 1.073z" fill="url(#f)" fill-rule="evenodd"/></svg>