<svg fill="none" height="48" viewBox="0 0 48 48" width="48" xmlns="http://www.w3.org/2000/svg" xmlns:xlink="http://www.w3.org/1999/xlink"><linearGradient id="a"><stop offset="0" stop-color="#8301bc"/><stop offset="1" stop-color="#d2286a"/></linearGradient><linearGradient id="b" gradientUnits="userSpaceOnUse" x1="-9.38745" x2="49.2399" xlink:href="#a" y1="24" y2="24"/><linearGradient id="c" gradientUnits="userSpaceOnUse" x1="11.8275" x2="33.202" xlink:href="#a" y1="22.125" y2="22.125"/><linearGradient id="d" gradientUnits="userSpaceOnUse" x1="15.3054" x2="30.5729" xlink:href="#a" y1="35.25" y2="35.25"/><rect fill="url(#b)" height="48" opacity=".12" rx="12" width="48"/><path clip-rule="evenodd" d="m19.6645 12.671c2.7311-1.5869 6.088-1.5592 8.7935.0726 2.6788 1.665 4.307 4.6366 4.2918 7.8332-.0624 3.1756-1.8082 6.1607-3.9905 8.4683-1.2595 1.3379-2.6685 2.5209-4.1982 3.5249-.1576.0911-.3302.1521-.5092.18-.1724-.0073-.3403-.0583-.4885-.1482-2.3354-1.5086-4.3842-3.4343-6.048-5.6843-1.3922-1.8783-2.1831-4.1475-2.2654-6.4995-.0018-3.2027 1.6835-6.1602 4.4145-7.747zm1.5782 9.0724c.4594 1.1326 1.5438 1.8713 2.7468 1.8713.7881.0057 1.5457-.31 2.104-.8767s.8708-1.3373.8681-2.1401c.0042-1.2254-.7173-2.3326-1.8275-2.8045-1.1103-.4719-2.3903-.2155-3.2425.6495-.8521.865-1.1083 2.1679-.6489 3.3005z" fill="url(#c)" fill-rule="evenodd"/><path d="m24 36.5c3.4518 0 6.25-.5596 6.25-1.25s-2.7982-1.25-6.25-1.25-6.25.5596-6.25 1.25 2.7982 1.25 6.25 1.25z" fill="url(#d)" opacity=".4"/></svg>