<svg fill="none" height="68" viewBox="0 0 100 68" width="100" xmlns="http://www.w3.org/2000/svg" xmlns:xlink="http://www.w3.org/1999/xlink"><filter id="a" color-interpolation-filters="sRGB" filterUnits="userSpaceOnUse" height="83.1828" width="114.366" x="-7.18282" y="-15.1828"><feFlood flood-opacity="0" result="BackgroundImageFix"/><feGaussianBlur in="BackgroundImageFix" stdDeviation="13.5914"/><feComposite in2="SourceAlpha" operator="in" result="effect1_backgroundBlur_3_969"/><feColorMatrix in="SourceAlpha" result="hardAlpha" type="matrix" values="0 0 0 0 0 0 0 0 0 0 0 0 0 0 0 0 0 0 127 0"/><feOffset dy="8"/><feGaussianBlur stdDeviation="10"/><feColorMatrix type="matrix" values="0 0 0 0 0.290196 0 0 0 0 0.823529 0 0 0 0 0.894118 0 0 0 0.0818127 0"/><feBlend in2="effect1_backgroundBlur_3_969" mode="normal" result="effect2_dropShadow_3_969"/><feBlend in="SourceGraphic" in2="effect2_dropShadow_3_969" mode="normal" result="shape"/></filter><linearGradient id="b"><stop offset="0" stop-color="#8301bc"/><stop offset="1" stop-color="#d2286a"/></linearGradient><linearGradient id="c" gradientUnits="userSpaceOnUse" x1="8.26568" x2="81.5498" xlink:href="#b" y1="26" y2="26"/><linearGradient id="d" gradientUnits="userSpaceOnUse" x1="12.2435" x2="79.4207" xlink:href="#b" y1="26" y2="26"/><g filter="url(#a)" opacity=".12"><rect fill="url(#c)" height="28" rx="7" width="60" x="20" y="12"/></g><path d="m24.3188 21.48v8.52h2.832c2.664 0 4.5-1.644 4.5-4.284 0-2.748-1.956-4.236-4.512-4.236zm1.008 7.596v-6.672h1.788c2.112 0 3.504 1.26 3.504 3.336 0 2.148-1.488 3.336-3.504 3.336zm10.5985 1.104c1.068 0 2.064-.492 2.568-1.452l-.816-.372c-.408.648-1.02.972-1.776.972-1.332 0-2.004-1.032-2.1-2.232h4.812v-.396c0-1.704-1.128-3.06-2.844-3.06-1.836 0-2.964 1.56-2.964 3.276 0 1.86 1.26 3.264 3.12 3.264zm-2.076-3.828c.168-1.008.84-1.896 1.92-1.896 1.104 0 1.74.888 1.836 1.896zm1.992-3.54 1.608-1.716h-1.14l-1.428 1.716zm6.8658 7.368c1.116 0 2.172-.588 2.592-1.644l-.876-.3c-.312.672-.984 1.068-1.716 1.068-.288 0-.552-.06-.792-.18-.828-.348-1.2-1.344-1.2-2.184 0-1.188.708-2.436 2.004-2.436.744 0 1.296.444 1.632 1.08l.876-.3c-.432-1.044-1.356-1.656-2.472-1.656-1.848 0-3.024 1.596-3.024 3.324 0 1.752 1.188 3.228 2.976 3.228zm6.6114 0c1.872 0 3.084-1.5 3.084-3.276 0-1.824-1.224-3.276-3.06-3.276-1.86 0-3.084 1.512-3.084 3.276 0 1.8 1.236 3.276 3.06 3.276zm-2.076-3.276c0-1.248.768-2.4 2.088-2.4.6 0 1.092.24 1.5.672.42.492.588 1.092.588 1.728 0 1.26-.768 2.4-2.088 2.4-.576 0-1.116-.24-1.488-.684-.432-.456-.6-1.104-.6-1.716zm6.4753-3.096v3.504c0 1.644.876 2.868 2.568 2.868 1.716 0 2.616-1.284 2.616-2.868v-3.504h-.96v3.516c0 1.068-.48 1.98-1.632 1.98s-1.632-.96-1.632-1.98v-3.516zm6.1974 0 2.424 6.192h.996l2.424-6.192h-1.02l-1.884 5.16-1.884-5.16zm6.9053 0v6.192h.96v-3.288c0-1.056.528-2.052 1.68-2.052.192 0 .384.012.564.084l.12-.912c-.084-.036-.168-.06-.276-.084-.108-.012-.24-.024-.372-.024-.84 0-1.44.468-1.752 1.236l-.06-1.152zm5.46 6.192v-6.192h-.96v6.192zm-.48-7.344c.36 0 .66-.3.66-.66 0-.384-.288-.66-.66-.66-.36 0-.66.3-.66.66 0 .348.312.66.66.66zm2.1567 1.152v6.192h.96v-3.288c0-1.056.528-2.052 1.68-2.052.192 0 .384.012.564.084l.12-.912c-.084-.036-.168-.06-.276-.084-.108-.012-.24-.024-.372-.024-.84 0-1.44.468-1.752 1.236l-.06-1.152z" fill="url(#d)"/></svg>