<svg fill="none" height="32" viewBox="0 0 83 32" width="83" xmlns="http://www.w3.org/2000/svg" xmlns:xlink="http://www.w3.org/1999/xlink"><clipPath id="a"><path d="m0 0h83v32h-83z"/></clipPath><g clip-path="url(#a)"><path d="m21.2205 2.78777c.1016 2.52147 2.0916 12.14353 2.0916 12.14353.7313 1.9489 1.3609 0 1.3609 0 2.4075-7.9048-2.5125-12.48577-2.5125-12.48577-1.2559-.80361-.94.34224-.94.34224zm28.5667-1.3738s2.4086 1.83275 0 2.1762c0 0-8.9999 1.14524-15.6967 8.02093 0 0-10.0471 9.6203-13.8133 20.1609 0 0-1.256 0-.8357-2.0613.4181-2.062 2.9284-11.1133 14.1243-22.22404 0 0 10.7817-10.76976 16.2214-6.07269z" fill="#ff4600"/><g fill="#000"><path d="m4.00087 16.6655c.39755.0918.75457.1367 1.27872.1367 2.05273 0 3.43584-1.4455 3.43584-3.2813 0-1.6516-1.06829-2.2473-2.45028-2.2473-.60911 0-1.06996.0462-1.36312.1368zm-1.15269-7.159c.85952-.23039 2.13824-.36716 3.39531-.36716 1.32092 0 2.70403.29725 3.62573 1.10146.81728.6881 1.29928 1.696 1.29928 3.0747 0 1.8345-.7968 3.3275-1.80288 4.1986-1.13103.9866-2.74623 1.4686-4.42251 1.4686-.5036 0-.94224-.0699-1.31981-.1149l-1.0272 5.8514h-2.388092z"/><path d="m17.6419 15.4708c-.251-.0699-.5647-.1143-1.005-.1143-2.2426 0-4.0033 2.7774-4.0033 5.3244 0 1.1684.3981 2.1331 1.4675 2.1331 1.1516 0 2.5358-1.5593 3.0177-4.4053zm-.9845 9.2482c0-.6668.0833-1.5604.1683-2.5026h-.0422c-1.0056 2.0437-2.3687 2.7543-3.668 2.7543-1.8228 0-3.0188-1.5604-3.0188-3.8083 0-3.809 2.4314-7.8708 7.1893-7.8708 1.1104 0 2.3053.2291 3.1021.5045l-1.0688 5.8283c-.2943 1.6516-.4615 3.7634-.4193 5.0946z"/><path d="m34.2593 20.2907c0 1.5355.7334 2.6169 1.9911 2.6169 1.8234 0 3.0393-2.7549 3.0393-4.9804 0-1.1483-.483-2.5707-1.9489-2.5707-1.9494 0-3.0815 2.8461-3.0815 4.9342zm7.5451-2.3854c0 3.8078-2.4108 7.0654-5.8889 7.0654-2.5791 0-4.1704-1.9501-4.1704-4.6126 0-3.7846 2.4098-7.0659 5.8889-7.0659 2.7451 0 4.1704 2.1567 4.1704 4.6131z"/><path d="m42.2637 24.7192 1.3209-7.7103c.251-1.3312.3975-2.5014.5236-3.4643h2.181l-.231 1.9963h.0411c.9422-1.4923 2.2426-2.2492 3.6679-2.2492 1.4664 0 2.5986.9648 2.5986 3.0753 0 .5039-.0822 1.2838-.1877 1.8352l-1.1127 6.517h-2.452l1.0889-6.3103c.0649-.4128.1271-.8948.1271-1.3313 0-.941-.3143-1.6066-1.2782-1.6066-1.1104 0-2.5363 1.468-2.9761 4.0855l-.88 5.1627z"/><path d="m58.8602 15.2878c-1.5308 0-2.5358 1.4911-2.829 2.8461 2.5142.0225 4.1294-.3447 4.1294-1.6978 0-.7112-.5242-1.1483-1.3004-1.1483zm2.3264 8.7881c-1.0066.5732-2.3675.8948-3.6051.8948-2.8268 0-4.1899-1.9033-4.1899-4.6345 0-3.3731 2.2621-7.044 5.7834-7.044 2.0116 0 3.2904 1.2613 3.2904 3.1439 0 2.8674-2.7446 3.7846-6.6846 3.6935-.0427.3896.0411 1.1464.2721 1.5829.3986.758 1.1299 1.1477 2.0955 1.1477 1.1537 0 2.0743-.3216 2.81-.7344z"/><path d="m68.3524 15.2878c-1.5292 0-2.5358 1.4911-2.829 2.8461 2.5142.0225 4.1294-.3447 4.1294-1.6978 0-.7112-.5242-1.1483-1.3004-1.1483zm2.3264 8.7881c-1.0049.5732-2.3675.8948-3.6029.8948-2.829 0-4.1921-1.9033-4.1921-4.6345 0-3.3731 2.262-7.044 5.7834-7.044 2.0116 0 3.2926 1.2613 3.2926 3.1439 0 2.8674-2.7468 3.7846-6.6868 3.6935-.0433.3896.0411 1.1464.2721 1.5829.3986.758 1.1316 1.1477 2.0955 1.1477 1.1537 0 2.0743-.3216 2.81-.7344z"/><path d="m72.1045 24.7192 1.1943-6.8842c.2721-1.5829.4187-3.3038.5219-4.2904h2.1177c-.0627.7568-.1249 1.5367-.2304 2.341h.0622c.6946-1.4924 1.8029-2.5939 3.1871-2.5939.1899 0 .3776.0238.5458.0238l-.4831 2.6157c-.1254-.0238-.2931-.0238-.4614-.0238-1.7407 0-2.8506 1.9276-3.2476 4.3135l-.7762 4.4983z"/><path d="m81.3575 14.567h.1788c.1832 0 .3043-.1118.3043-.2808 0-.1903-.1272-.2735-.3104-.2735-.0844 0-.1444.0066-.1727.0139zm-.1749-.6741c.0889-.0176.216-.0304.3343-.0304.1854 0 .3087.0413.3903.1216.0672.065.1061.1665.1061.2833 0 .192-.1105.3221-.2527.3738v.0073c.1033.0389.1638.1453.1983.2985.0433.2042.0755.3483.1038.406h-.181c-.0217-.045-.0522-.1696-.0866-.3538-.0411-.2042-.1161-.2796-.2738-.2869h-.1638v.6407h-.1749z"/><path d="m81.5836 13.2921c-.6663 0-1.2076.5927-1.2076 1.3222 0 .7294.5413 1.3227 1.2076 1.3227s1.2077-.5933 1.2077-1.3227c0-.7295-.5414-1.3222-1.2077-1.3222zm0 .2043c.5631 0 1.02.4991 1.02 1.1179 0 .6182-.4569 1.1191-1.02 1.1191-.5647 0-1.0222-.5009-1.0222-1.1191 0-.6188.4575-1.1179 1.0222-1.1179z"/></g></g></svg>