<svg fill="none" height="23" viewBox="0 0 86 23" width="86" xmlns="http://www.w3.org/2000/svg" xmlns:xlink="http://www.w3.org/1999/xlink"><clipPath id="a"><path d="m0 0h86v23h-86z"/></clipPath><g clip-path="url(#a)"><path d="m32.181 5.65625h-4.7528c-.1574-.0001-.3096.0563-.4292.15904-.1197.10274-.1989.24507-.2234.40133l-1.9222 12.25338c-.0089.0569-.0053.115.0103.1704.0157.0553.043.1066.0803.1503.0372.0437.0835.0788.1355.1028s.1086.0364.1658.0363h2.2691c.1574.0001.3097-.0564.4293-.1593.1197-.1029.1988-.2454.2232-.4018l.5184-3.3049c.0244-.1563.1034-.2987.223-.4015.1195-.1029.2716-.1595.4289-.1596h1.5046c3.1307 0 4.9376-1.5232 5.4095-4.54165.2126-1.32057.009-2.35817-.606-3.08484-.6755-.79793-1.8736-1.21996-3.4643-1.21996zm.5483 4.47525c-.2599 1.7147-1.563 1.7147-2.8229 1.7147h-.7172l.5031-3.20223c.0148-.09369.0623-.17901.134-.24062s.163-.09546.2573-.09546h.3287c.8583 0 1.6679 0 2.0862.49189.2495.29347.326.72947.2308 1.33172zm13.6585-.0552h-2.2759c-.0944 0-.1856.0339-.2573.0955s-.1192.1469-.134.2406l-.1007.6401-.1592-.232c-.4927-.719-1.5914-.95936-2.6881-.95936-2.515 0-4.6631 1.91516-5.0814 4.60176-.2176 1.3401.0917 2.6216.8478 3.5153.6936.8216 1.6859 1.164 2.8667 1.164 2.0264 0 3.1502-1.3101 3.1502-1.3101l-.1015.6359c-.009.0568-.0057.1149.0098.1704.0154.0554.0427.1068.0798.1506.0371.0439.0832.0791.1352.1033s.1085.0367.1658.0368h2.0501c.1574.0001.3097-.0564.4294-.1593.1196-.1029.1988-.2454.2231-.4018l1.2301-7.8319c.0091-.0567.0058-.1147-.0097-.1701-.0154-.0553-.0426-.1066-.0797-.1503-.037-.0437-.0831-.0788-.135-.1029-.0519-.024-.1083-.0365-.1655-.0365zm-3.1724 4.4537c-.2196 1.3073-1.2516 2.1849-2.5679 2.1849-.6609 0-1.189-.2131-1.5282-.617-.3363-.4011-.4642-.9719-.3572-1.6078.2051-1.2961 1.2544-2.2023 2.5505-2.2023.6463 0 1.1717.2159 1.5178.6232.3468.4116.4844.9859.385 1.619zm15.2938-4.4537h-2.2871c-.1079.0002-.214.0268-.3094.0776-.0953.0508-.1768.1242-.2375.2138l-3.1544 4.6716-1.3371-4.4892c-.041-.1369-.1248-.2569-.239-.3423-.1141-.0853-.2526-.1314-.3948-.1315h-2.2475c-.0631-.0001-.1253.0149-.1814.0437-.0562.0289-.1047.0709-.1415.1224-.0367.0516-.0607.1112-.07.1739-.0092.0628-.0034.1268.017.1869l2.5192 7.4329-2.3684 3.3616c-.0421.0596-.0671.1297-.0722.2026s.0099.1458.0432.2108c.0334.0649.0839.1194.146.1574s.1334.0581.2061.058h2.2843c.1067.0002.2118-.0257.3063-.0753.0945-.0497.1757-.1217.2365-.2098l7.6069-11.0397c.0413-.0597.0654-.1297.07-.2022.0045-.0726-.0109-.145-.0444-.2094-.0335-.0645-.0839-.1184-.1457-.1561-.0619-.0377-.1328-.0576-.2051-.0577z" fill="#253b80"/><path d="m66.0815 5.65597h-4.7535c-.1572.00007-.3093.05655-.4288.15927-.1195.10273-.1986.24496-.2231.4011l-1.9222 12.25346c-.009.0567-.0055.1148.01.1701s.0427.1066.0799.1503c.0371.0437.0832.0787.1351.1028s.1084.0365.1656.0365h2.4392c.1101-.0001.2165-.0398.3-.1118.0836-.0719.1389-.1715.1559-.2809l.5456-3.4733c.0243-.1563.1034-.2987.2229-.4015.1195-.1029.2716-.1595.4289-.1596h1.5039c3.1315 0 4.9376-1.5232 5.4102-4.54162.2134-1.32058.0083-2.35818-.6067-3.08485-.6748-.79793-1.8722-1.21996-3.4629-1.21996zm.5483 4.47533c-.2592 1.7146-1.5623 1.7146-2.8229 1.7146h-.7165l.5038-3.20221c.0145-.09369.0618-.17908.1334-.24073.0717-.06164.1629-.09547.2572-.09535h.3287c.8576 0 1.6679 0 2.0863.4919.2494.29346.3252.72946.23 1.33179zm13.6579-.0552h-2.2746c-.0943-.0003-.1856.0335-.2573.0952-.0717.0616-.119.1471-.1333.2408l-.1007.6401-.1599-.232c-.4927-.719-1.5907-.95934-2.6874-.95934-2.515 0-4.6624 1.91514-5.0807 4.60174-.2169 1.3402.091 2.6216.8471 3.5153.695.8217 1.686 1.164 2.8667 1.164 2.0265 0 3.1502-1.3101 3.1502-1.3101l-.1015.6359c-.009.0569-.0057.1152.0099.1707.0155.0556.0429.107.0801.1509.0373.0439.0836.079.1358.1031.0521.0241.1088.0365.1662.0364h2.0494c.1573-.0001.3094-.0566.429-.1595.1195-.1029.1985-.2453.2229-.4015l1.2307-7.832c.0087-.0569.0051-.115-.0106-.1704-.0157-.0553-.0432-.1066-.0805-.1503s-.0836-.0787-.1356-.1027c-.0521-.024-.1087-.0364-.1659-.0363zm-3.1725 4.4536c-.2182 1.3073-1.2516 2.1849-2.5678 2.1849-.6595 0-1.1891-.2131-1.5282-.617-.3364-.401-.4629-.9719-.3572-1.6077.2064-1.2962 1.2544-2.2024 2.5504-2.2024.6463 0 1.1717.2159 1.5178.6233.3482.4115.4858.9859.385 1.6189zm5.8557-8.53764-1.9507 12.47774c-.009.0567-.0056.1148.0099.1701.0156.0553.0428.1066.0799.1503.0372.0437.0833.0787.1352.1028s.1084.0365.1655.0365h1.9612c.3259 0 .6025-.2375.6525-.561l1.9237-12.25277c.0089-.0568.0055-.11486-.01-.17021s-.0428-.10666-.0799-.15041-.0832-.07891-.1351-.10304c-.0519-.02414-.1084-.03669-.1656-.0368h-2.196c-.0943.00034-.1854.03441-.257.09613-.0715.06171-.1189.14702-.1336.24066z" fill="#179bd7"/><path d="m5.11589 21.3107.36345-2.3211-.80961-.0189h-3.866019l2.686679-17.12768c.008-.05233.03444-.10003.07449-.13441.04006-.03437.09107-.05312.14373-.05285h6.51869c2.164 0 3.6575.45277 4.4372 1.34644.3656.41923.5984.85732.711 1.33944.1181.50587.1202 1.11026.0048 1.84741l-.0083.0538v.47234l.3655.20821c.2791.14215.5299.33444.7401.56736.3128.35845.515.81401.6005 1.35412.0882.55548.0591 1.21642-.0855 1.96482-.1668.8608-.4364 1.6105-.8006 2.224-.3213.5496-.7533 1.0256-1.2683 1.3974-.4837.3452-1.0584.6072-1.7082.7749-.6296.1649-1.3475.2481-2.1348.2481h-.5074c-.3627 0-.71507.1313-.99166.3668-.27619.238-.45942.5668-.51704.9279l-.03822.2089-.64214 4.091-.02919.1502c-.00764.0475-.02084.0713-.0403.0874-.01885.0155-.04237.0241-.06672.0244z" fill="#253b80"/><path d="m16.0838 6.29736c-.0194.12507-.0417.25294-.0667.3843-.8596 4.43754-3.8007 5.97054-7.55689 5.97054h-1.91251c-.45936 0-.84645.3354-.91803.791l-.97919 6.2437-.27728 1.7699c-.01105.0702-.00683.142.01236.2104s.05289.1318.0988.1858c.0459.0541.10291.0975.1671.1273s.13403.0452.20473.0452h3.39206c.40168 0 .7429-.2934.80614-.6917l.03336-.1733.63866-4.0749.041-.2236c.06255-.3997.40449-.6931.80619-.6931h.5073c3.2864 0 5.8591-1.3416 6.611-5.2237.3142-1.62168.1515-2.9758-.6796-3.92816-.2635-.2946-.5781-.53848-.9285-.71968z" fill="#179bd7"/><path d="m15.1848 5.93695c-.2745-.07984-.5537-.14215-.8361-.18656-.5578-.0862-1.1215-.12755-1.6859-.12368h-5.10929c-.19444-.00015-.38253.06965-.53025.19677s-.24534.30318-.2752.49636l-1.0869 6.92146-.03128.202c.03386-.2204.14504-.4212.31343-.5663.16838-.1451.38285-.2248.6046-.2247h1.91251c3.75618 0 6.69728-1.5337 7.55688-5.97052.0257-.13136.0473-.25923.0667-.3843-.2268-.1196-.4632-.21986-.7067-.29975-.0639-.02129-.128-.04156-.1925-.06078z" fill="#222d65"/><path d="m6.74761 6.31986c.02961-.19323.12717-.36938.27497-.49643.1478-.12706.33602-.1966.53048-.196h5.10924c.6053 0 1.1703.03983 1.686.12368.3489.05513.6931.1376 1.0292.24664.2537.08455.4893.18446.7068.29975.2557-1.63989-.0021-2.75644-.884-3.76749-.9722-1.11305-2.727-1.58958-4.9724-1.58958h-6.51862c-.45867 0-.84993.33538-.92081.79165l-2.715177 17.30372c-.0126468.0804-.0078351.1625.0141041.2408.0219389.0783.0604849.1509.1129869.2128.052501.0618.117712.1116.191147.1457.073434.0341.153349.0518.234249.0519h4.02446l1.01046-6.4456z" fill="#253b80"/></g></svg>