<svg fill="none" height="60" viewBox="0 0 60 60" width="60" xmlns="http://www.w3.org/2000/svg"><path d="m26.6421 37.9183h-4.1203l2.5752-15.8259h4.1207zm-7.5865-15.8259-3.9281 10.8851-.4649-2.344.0005.0009-1.3865-7.1171s-.1676-1.4249-1.9545-1.4249h-6.49395l-.0762.2679s1.98586.4132 4.30997 1.8089l3.57968 13.7495h4.2931l6.5553-15.8263zm32.4083 15.8259h3.7834l-3.2987-15.8264h-3.3121c-1.5295 0-1.9021 1.1794-1.9021 1.1794l-6.1451 14.647h4.2952l.8589-2.3508h5.2379zm-4.5339-5.5982 2.1649-5.9224 1.218 5.9224zm-6.0185-6.422.588-3.3985s-1.8144-.69-3.7059-.69c-2.0447 0-6.9003.8936-6.9003 5.2392 0 4.0885 5.6989 4.1393 5.6989 6.2869s-5.1118 1.7628-6.7988.4085l-.6125 3.5535s1.8398.8936 4.6507.8936c2.8118 0 7.0536-1.4558 7.0536-5.4182 0-4.1148-5.7501-4.4979-5.7501-6.287.0004-1.7894 4.0132-1.5595 5.7764-.588z" fill="#2566af"/><path d="m14.6631 30.6343-1.3865-7.1171s-.1676-1.4249-1.9545-1.4249h-6.49395l-.0762.268s3.12125.6468 6.11505 3.0704c2.8626 2.3165 3.7961 5.2036 3.7961 5.2036z" fill="#e6a540"/></svg>